<?xml version="1.0" encoding="UTF-8"?>
<!DOCTYPE svg PUBLIC "-//W3C//DTD SVG 1.1//EN" "http://www.w3.org/Graphics/SVG/1.1/DTD/svg11.dtd">
<!-- Creator: CorelDRAW -->
<svg xmlns="http://www.w3.org/2000/svg" xml:space="preserve" width="400px" height="70px" version="1.1" style="shape-rendering:geometricPrecision; text-rendering:geometricPrecision; image-rendering:optimizeQuality; fill-rule:evenodd; clip-rule:evenodd"
viewBox="0 0 400 70"
 xmlns:xlink="http://www.w3.org/1999/xlink"
 xmlns:xodm="http://www.corel.com/coreldraw/odm/2003">
 <defs>
  <style type="text/css">
   <![CDATA[
    .fil1 {fill:red}
    .fil0 {fill:red;fill-rule:nonzero}
   ]]>
  </style>
 </defs>
 <g id="Layer_x0020_1">
  <metadata id="CorelCorpID_0Corel-Layer"/>
  <path class="fil0" d="M128.146 49.855c0,0.657 -0.197,1.367 -0.591,2.117 -0.388,0.75 -0.986,1.467 -1.787,2.143 -0.802,0.678 -1.814,1.228 -3.036,1.64 -1.216,0.418 -2.589,0.623 -4.12,0.623 -3.246,0 -5.782,-0.955 -7.602,-2.866 -1.827,-1.912 -2.74,-4.473 -2.74,-7.691 0,-2.176 0.42,-4.1 1.255,-5.772 0.834,-1.672 2.043,-2.966 3.62,-3.875 1.584,-0.917 3.469,-1.374 5.664,-1.374 1.36,0 2.609,0.199 3.745,0.604 1.13,0.404 2.096,0.922 2.885,1.559 0.788,0.637 1.393,1.314 1.807,2.03 0.421,0.723 0.631,1.394 0.631,2.018 0,0.637 -0.237,1.174 -0.703,1.619 -0.473,0.437 -1.039,0.657 -1.709,0.657 -0.434,0 -0.795,-0.113 -1.084,-0.339 -0.289,-0.225 -0.611,-0.591 -0.972,-1.095 -0.644,-0.982 -1.314,-1.725 -2.011,-2.216 -0.703,-0.491 -1.59,-0.736 -2.667,-0.736 -1.552,0 -2.806,0.61 -3.753,1.837 -0.953,1.222 -1.425,2.894 -1.425,5.017 0,0.995 0.124,1.911 0.367,2.747 0.243,0.836 0.592,1.553 1.058,2.137 0.46,0.59 1.018,1.035 1.676,1.34 0.651,0.305 1.373,0.457 2.155,0.457 1.052,0 1.952,-0.245 2.701,-0.736 0.755,-0.491 1.419,-1.247 1.997,-2.256 0.316,-0.597 0.664,-1.061 1.038,-1.393 0.368,-0.339 0.828,-0.511 1.367,-0.511 0.644,0 1.176,0.252 1.597,0.743 0.42,0.491 0.637,1.015 0.637,1.572zm-20.103 -42.953c1.77,0.551 3.458,1.16 5.035,1.826 2.349,0.84 6.325,2.433 8.389,3.693 -5.804,-1.553 -9.681,-2.946 -13.424,-3.982 -6.037,-1.671 -11.724,-2.413 -24.578,-1.398 -5.692,0.449 -12.951,1.476 -18.366,2.838 -5.173,1.3 -10.456,4.784 -12.008,8.496 9.481,0.039 25.933,0.47 33.564,3.768 -14.191,0.059 -24.908,-0.727 -39.448,1.662 -8.3,1.364 -26.953,4.356 -33.508,7.714 5.602,8.348 2.777,11.278 -7.703,8.869 -0.88,5.613 0.083,12.658 3.688,15.753 0.079,-0.04 0.168,-0.153 0.2,-0.173 3.019,-2.04 1.82,-0.186 3.816,-1.488 -3.355,-11.819 9.41,-10.485 18.197,-9.989 4.278,0.241 8.886,0.567 13.139,1.148 2.13,0.293 4.356,0.646 6.453,1.01 3.581,0.624 3.657,0.48 3.998,3.16 -1.329,-1.854 -0.748,-1.764 -3.55,-2.007 -7.758,-0.673 -28.785,-1.623 -33.816,1.878 -0.081,2.683 1.034,4.322 1.896,6.272l45.551 -0.123c-5.149,0.466 -27.921,2.84 -30.586,4.398 -4.614,2.696 -6.315,4.382 -12.537,0.978 -3.549,-1.943 -10.126,-0.748 -13.935,-0.706 -2.839,-0.627 -3.675,-4.542 -3.844,-4.948 -1.102,-2.641 -1.572,-2.574 -2.185,-5.993 -1.041,-5.802 -1.727,-9.564 0.662,-14.985l7.84 1.967c-1.115,-1.862 -3.942,-3.397 -4.216,-4.687 -1.529,-7.219 29.319,-11.485 35.317,-12.699 5.326,-1.078 8.6,-8.859 15.819,-12.31 10.732,-5.131 33.94,-4.98 50.14,0.058zm-11.142 40.217c0,-0.559 -0.413,-3.889 -0.716,-4.878 -0.245,-0.798 0.813,0.987 0.992,1.459 0.263,0.692 0.988,3.075 1.157,2.974 0.252,-0.151 -0.079,-2.203 -0.159,-2.637 -0.391,-2.11 -2.3,-5.575 -3.475,-6.946 -2.059,-2.377 -5.193,-3.145 -8.654,-3.145 -2.245,0 -4.204,0.525 -5.906,1.588 -1.703,1.064 -3.018,2.639 -3.933,4.714 -0.929,2.074 -1.387,4.504 -1.387,7.259 0,1.565 0.15,3.018 0.443,4.357 0.025,0.114 -0.022,0.969 -0.223,0.391 -0.241,-0.696 -0.663,-2.884 -0.856,-3.161 -0.287,-0.411 -0.38,0.799 -0.343,1.36 0.035,0.542 0.303,2.511 1.096,4.036 0.915,2.048 3.445,3.837 5.131,4.925 1.687,1.089 3.69,1.629 5.978,1.629 3.461,0 6.207,-1.196 8.265,-3.597 2.045,-2.39 2.59,-6.1 2.59,-10.328zm3.042 11.026l-1.804 2.444c-1.296,1.755 -3.253,2.835 -5.305,3.69 -2.051,0.855 -4.368,1.289 -6.935,1.289 -2.558,0 -4.852,-0.433 -6.883,-1.3 -2.032,-0.867 -3.8,-2.112 -5.294,-3.735 -1.484,-1.611 -2.621,-3.524 -3.389,-5.725 -0.768,-2.212 -1.158,-4.645 -1.158,-7.313 0,-2.543 0.348,-4.886 1.044,-7.023l-0.939 0.372c-20.281,6.571 -19.383,-6.227 -12.678,-9.9 4.247,-2.327 7.786,-0.927 12.642,-0.988 5.659,-3.884 12.714,-6.249 21.221,-5.995 -3.307,0.566 -8.614,2.244 -11.784,3.595 -4.181,1.782 -6.267,3.931 -9.437,5.91 -4.563,-0.623 -8.467,-1.033 -10.707,0.994 -0.852,0.771 -1.463,1.893 -1.78,3.491 5.121,0.112 5.269,0.951 12.619,-0.981 1.972,-0.854 2.407,-0.909 4.335,-2.602 1.463,-1.579 3.231,-2.802 5.305,-3.658 2.073,-0.855 4.368,-1.289 6.883,-1.289 2.546,0 4.862,0.434 6.935,1.3 2.073,0.867 3.852,2.113 5.336,3.725 2.524,2.72 3.743,5.863 4.579,9.447l3.789 15.334c0.279,1.127 0.233,2.541 -0.336,3.391 -1.004,1.498 -3.421,0.793 -4.578,-0.354 -0.798,-0.79 -1.358,-2.589 -1.681,-4.119zm237.606 -4.75l-0.048 0.051c-0.92,0.962 -2.03,1.691 -3.312,2.202 -1.281,0.512 -2.727,0.77 -4.33,0.77 -1.597,0 -3.029,-0.258 -4.297,-0.776 -1.268,-0.518 -2.372,-1.261 -3.305,-2.23 -0.927,-0.962 -1.637,-2.104 -2.116,-3.417 -0.479,-1.32 -0.723,-2.774 -0.723,-4.366 0,-1.607 0.244,-3.079 0.73,-4.413 0.492,-1.333 1.189,-2.475 2.102,-3.424 0.913,-0.942 2.018,-1.672 3.312,-2.183 1.295,-0.51 2.727,-0.769 4.297,-0.769 1.59,0 3.036,0.259 4.33,0.776 1.294,0.517 2.405,1.261 3.332,2.223 1.575,1.624 2.336,3.5 2.858,5.64l2.366 9.714c0.251,1.031 -0.25,1.865 -0.749,2.409 -0.499,0.544 -1.13,0.816 -1.899,0.816 -0.769,0 -1.393,-0.279 -1.873,-0.836 -0.447,-0.519 -0.473,-1.274 -0.675,-2.187zm-2.479 -7.76c0,-2.163 -0.474,-3.842 -1.413,-5.049 -0.946,-1.201 -2.208,-1.805 -3.798,-1.805 -1.031,0 -1.932,0.266 -2.714,0.803 -0.782,0.538 -1.386,1.333 -1.807,2.382 -0.427,1.048 -0.637,2.276 -0.637,3.669 0,1.387 0.21,2.602 0.624,3.636 0.421,1.036 1.012,1.832 1.787,2.383 0.776,0.55 1.696,0.823 2.747,0.823 1.59,0 2.852,-0.604 3.798,-1.818 0.939,-1.208 1.413,-2.887 1.413,-5.024zm-82.836 7.76l-0.048 0.051c-0.92,0.962 -2.03,1.691 -3.311,2.202 -1.282,0.512 -2.728,0.77 -4.331,0.77 -1.596,0 -3.029,-0.258 -4.297,-0.776 -1.268,-0.518 -2.372,-1.261 -3.305,-2.23 -0.926,-0.962 -1.636,-2.104 -2.116,-3.417 -0.48,-1.32 -0.722,-2.774 -0.722,-4.366 0,-1.607 0.242,-3.079 0.729,-4.413 0.492,-1.333 1.189,-2.475 2.102,-3.424 0.914,-0.942 2.018,-1.672 3.312,-2.183 1.295,-0.51 2.727,-0.769 4.297,-0.769 1.59,0 3.037,0.259 4.331,0.776 1.294,0.517 2.404,1.261 3.331,2.223 1.576,1.624 2.337,3.5 2.858,5.64l2.366 9.714c0.252,1.031 -0.249,1.865 -0.749,2.409 -0.499,0.544 -1.13,0.816 -1.899,0.816 -0.768,0 -1.393,-0.279 -1.873,-0.836 -0.446,-0.519 -0.473,-1.274 -0.675,-2.187zm-2.479 -7.76c0,-2.163 -0.473,-3.842 -1.413,-5.049 -0.946,-1.201 -2.208,-1.805 -3.798,-1.805 -1.031,0 -1.931,0.266 -2.713,0.803 -0.782,0.538 -1.387,1.333 -1.807,2.382 -0.427,1.048 -0.637,2.276 -0.637,3.669 0,1.387 0.21,2.602 0.624,3.636 0.42,1.036 1.012,1.832 1.787,2.383 0.775,0.55 1.695,0.823 2.746,0.823 1.59,0 2.852,-0.604 3.798,-1.818 0.94,-1.208 1.413,-2.887 1.413,-5.024zm-63.138 7.76l-0.048 0.051c-0.92,0.962 -2.03,1.691 -3.312,2.202 -1.281,0.512 -2.727,0.77 -4.33,0.77 -1.597,0 -3.029,-0.258 -4.297,-0.776 -1.269,-0.518 -2.373,-1.261 -3.305,-2.23 -0.927,-0.962 -1.636,-2.104 -2.116,-3.417 -0.48,-1.32 -0.723,-2.774 -0.723,-4.366 0,-1.607 0.243,-3.079 0.729,-4.413 0.493,-1.333 1.19,-2.475 2.103,-3.424 0.913,-0.942 2.017,-1.672 3.312,-2.183 1.294,-0.51 2.727,-0.769 4.297,-0.769 1.59,0 3.036,0.259 4.33,0.776 1.295,0.517 2.405,1.261 3.332,2.223 1.575,1.624 2.336,3.5 2.858,5.64l2.366 9.714c0.251,1.031 -0.25,1.865 -0.749,2.409 -0.499,0.544 -1.13,0.816 -1.899,0.816 -0.769,0 -1.394,-0.279 -1.873,-0.836 -0.447,-0.519 -0.473,-1.274 -0.675,-2.187zm-2.48 -7.76c0,-2.163 -0.473,-3.842 -1.412,-5.049 -0.946,-1.201 -2.208,-1.805 -3.798,-1.805 -1.031,0 -1.932,0.266 -2.714,0.803 -0.781,0.538 -1.386,1.333 -1.806,2.382 -0.428,1.048 -0.638,2.276 -0.638,3.669 0,1.387 0.21,2.602 0.624,3.636 0.421,1.036 1.012,1.832 1.788,2.383 0.775,0.55 1.695,0.823 2.746,0.823 1.59,0 2.852,-0.604 3.798,-1.818 0.939,-1.208 1.412,-2.887 1.412,-5.024zm-51.128 -10.318l0.578 0 0 -3.191c0,-0.856 0.019,-1.527 0.066,-2.011 0.046,-0.491 0.17,-0.909 0.374,-1.254 0.204,-0.365 0.499,-0.663 0.887,-0.889 0.381,-0.225 0.808,-0.338 1.288,-0.338 0.663,0 1.261,0.252 1.8,0.756 0.362,0.338 0.585,0.75 0.683,1.241 0.099,0.484 0.145,1.174 0.145,2.07l0 3.616 1.925 0c0.743,0 1.314,0.179 1.702,0.531 0.394,0.358 0.591,0.816 0.591,1.367 0,0.717 -0.282,1.215 -0.84,1.5 -0.559,0.285 -1.354,0.425 -2.399,0.425l-0.979 0 0 9.754c0,0.829 0.027,1.473 0.086,1.917 0.059,0.445 0.21,0.81 0.46,1.088 0.256,0.279 0.663,0.418 1.228,0.418 0.303,0 0.723,-0.053 1.249,-0.165 0.525,-0.107 0.939,-0.166 1.228,-0.166 0.428,0 0.808,0.172 1.15,0.517 0.342,0.345 0.506,0.77 0.506,1.274 0,0.856 -0.459,1.506 -1.38,1.958 -0.926,0.457 -2.253,0.683 -3.988,0.683 -1.643,0 -2.884,-0.279 -3.726,-0.836 -0.847,-0.557 -1.399,-1.327 -1.662,-2.316 -0.263,-0.982 -0.394,-2.296 -0.394,-3.941l0 -10.185 -0.69 0c-0.763,0 -1.341,-0.179 -1.735,-0.545 -0.401,-0.358 -0.598,-0.822 -0.598,-1.38 0,-0.551 0.21,-1.009 0.624,-1.367 0.421,-0.352 1.025,-0.531 1.821,-0.531zm27.301 18.109l0 -0.684c-0.631,0.803 -1.288,1.48 -1.985,2.024 -0.69,0.544 -1.445,0.948 -2.266,1.214 -0.822,0.265 -1.755,0.398 -2.806,0.398 -1.275,0 -2.411,-0.265 -3.417,-0.796 -1.006,-0.531 -1.787,-1.261 -2.339,-2.196 -0.65,-1.129 -0.979,-2.747 -0.979,-4.864l0 -10.51c0,-1.069 0.236,-1.858 0.709,-2.383 0.473,-0.524 1.105,-0.79 1.886,-0.79 0.789,0 1.433,0.266 1.919,0.797 0.486,0.531 0.729,1.32 0.729,2.376l0 8.493c0,1.227 0.106,2.262 0.309,3.099 0.204,0.836 0.572,1.493 1.104,1.964 0.532,0.471 1.255,0.71 2.169,0.71 0.887,0 1.721,-0.266 2.503,-0.797 0.782,-0.531 1.354,-1.227 1.715,-2.083 0.295,-0.75 0.44,-2.396 0.44,-4.937l0 -6.449c0,-1.056 0.243,-1.845 0.73,-2.376 0.492,-0.531 1.13,-0.797 1.911,-0.797 0.782,0 1.413,0.266 1.886,0.79 0.48,0.525 0.717,1.314 0.717,2.383l0 15.374c0,1.008 -0.231,1.765 -0.684,2.276 -0.46,0.504 -1.044,0.756 -1.767,0.756 -0.716,0 -1.315,-0.265 -1.781,-0.789 -0.466,-0.525 -0.703,-1.261 -0.703,-2.203zm33.99 -0.233l0 -23.012c0,-1.061 0.237,-1.864 0.703,-2.408 0.467,-0.544 1.098,-0.816 1.893,-0.816 0.788,0 1.432,0.272 1.918,0.809 0.487,0.538 0.73,1.341 0.73,2.415l0 23.012c0,1.075 -0.25,1.878 -0.742,2.415 -0.493,0.538 -1.131,0.81 -1.906,0.81 -0.769,0 -1.393,-0.279 -1.873,-0.836 -0.48,-0.557 -0.723,-1.354 -0.723,-2.389zm15.928 -15.341l0 15.341c0,1.062 -0.249,1.865 -0.749,2.409 -0.499,0.544 -1.13,0.816 -1.899,0.816 -0.769,0 -1.393,-0.279 -1.873,-0.836 -0.479,-0.557 -0.722,-1.354 -0.722,-2.389l0 -15.181c0,-1.056 0.243,-1.845 0.722,-2.376 0.48,-0.531 1.104,-0.797 1.873,-0.797 0.769,0 1.4,0.266 1.899,0.797 0.5,0.531 0.749,1.274 0.749,2.216zm-2.595 -5.481c-0.73,0 -1.354,-0.225 -1.873,-0.677 -0.519,-0.451 -0.775,-1.095 -0.775,-1.924 0,-0.743 0.262,-1.36 0.795,-1.844 0.532,-0.485 1.15,-0.73 1.853,-0.73 0.683,0 1.281,0.218 1.806,0.657 0.526,0.444 0.789,1.081 0.789,1.917 0,0.816 -0.256,1.453 -0.769,1.912 -0.512,0.457 -1.116,0.689 -1.826,0.689zm22.307 8.56l-9.625 10.869 10.296 0c0.834,0 1.465,0.199 1.886,0.591 0.427,0.397 0.637,0.908 0.637,1.526 0,0.597 -0.21,1.081 -0.624,1.46 -0.421,0.378 -1.052,0.563 -1.899,0.563l-14.246 0c-0.998,0 -1.748,-0.219 -2.24,-0.663 -0.493,-0.438 -0.743,-1.042 -0.743,-1.805 0,-0.451 0.171,-0.909 0.519,-1.373 0.349,-0.458 1.065,-1.301 2.156,-2.535 1.156,-1.294 2.207,-2.469 3.147,-3.524 0.946,-1.048 1.82,-2.03 2.628,-2.946 0.809,-0.909 1.479,-1.685 2.011,-2.322 0.532,-0.638 0.959,-1.181 1.281,-1.632l-7.812 0c-1.078,0 -1.893,-0.1 -2.445,-0.292 -0.552,-0.193 -0.828,-0.704 -0.828,-1.533 0,-0.604 0.204,-1.095 0.624,-1.453 0.414,-0.366 1.012,-0.545 1.781,-0.545l12.071 0c1.117,0 1.971,0.166 2.569,0.498 0.598,0.325 0.893,0.922 0.893,1.772 0,0.285 -0.058,0.584 -0.17,0.882 -0.119,0.305 -0.243,0.558 -0.388,0.75 -0.138,0.192 -0.335,0.431 -0.578,0.71 -0.243,0.278 -0.546,0.611 -0.901,1.002zm29.852 -5.614l0.578 0 0 -3.191c0,-0.856 0.02,-1.527 0.066,-2.011 0.046,-0.491 0.171,-0.909 0.374,-1.254 0.204,-0.365 0.5,-0.663 0.887,-0.889 0.381,-0.225 0.809,-0.338 1.288,-0.338 0.663,0 1.261,0.252 1.8,0.756 0.362,0.338 0.585,0.75 0.684,1.241 0.099,0.484 0.144,1.174 0.144,2.07l0 3.616 1.926 0c0.742,0 1.313,0.179 1.702,0.531 0.393,0.358 0.591,0.816 0.591,1.367 0,0.717 -0.283,1.215 -0.841,1.5 -0.559,0.285 -1.354,0.425 -2.399,0.425l-0.979 0 0 9.754c0,0.829 0.027,1.473 0.086,1.917 0.059,0.445 0.21,0.81 0.46,1.088 0.256,0.279 0.664,0.418 1.228,0.418 0.303,0 0.724,-0.053 1.249,-0.165 0.525,-0.107 0.94,-0.166 1.229,-0.166 0.427,0 0.808,0.172 1.15,0.517 0.341,0.345 0.505,0.77 0.505,1.274 0,0.856 -0.459,1.506 -1.379,1.958 -0.927,0.457 -2.254,0.683 -3.989,0.683 -1.643,0 -2.884,-0.279 -3.726,-0.836 -0.847,-0.557 -1.399,-1.327 -1.662,-2.316 -0.263,-0.982 -0.394,-2.296 -0.394,-3.941l0 -10.185 -0.69 0c-0.762,0 -1.341,-0.179 -1.734,-0.545 -0.401,-0.358 -0.598,-0.822 -0.598,-1.38 0,-0.551 0.21,-1.009 0.624,-1.367 0.42,-0.352 1.024,-0.531 1.82,-0.531zm27.301 18.109l0 -0.684c-0.631,0.803 -1.288,1.48 -1.984,2.024 -0.69,0.544 -1.446,0.948 -2.267,1.214 -0.822,0.265 -1.754,0.398 -2.806,0.398 -1.274,0 -2.411,-0.265 -3.417,-0.796 -1.005,-0.531 -1.787,-1.261 -2.339,-2.196 -0.65,-1.129 -0.979,-2.747 -0.979,-4.864l0 -10.51c0,-1.069 0.237,-1.858 0.709,-2.383 0.474,-0.524 1.105,-0.79 1.886,-0.79 0.789,0 1.433,0.266 1.919,0.797 0.486,0.531 0.73,1.32 0.73,2.376l0 8.493c0,1.227 0.105,2.262 0.308,3.099 0.204,0.836 0.572,1.493 1.104,1.964 0.533,0.471 1.255,0.71 2.169,0.71 0.887,0 1.721,-0.266 2.503,-0.797 0.782,-0.531 1.354,-1.227 1.715,-2.083 0.296,-0.75 0.44,-2.396 0.44,-4.937l0 -6.449c0,-1.056 0.244,-1.845 0.73,-2.376 0.492,-0.531 1.13,-0.797 1.912,-0.797 0.782,0 1.412,0.266 1.886,0.79 0.479,0.525 0.716,1.314 0.716,2.383l0 15.374c0,1.008 -0.23,1.765 -0.684,2.276 -0.459,0.504 -1.044,0.756 -1.767,0.756 -0.716,0 -1.314,-0.265 -1.781,-0.789 -0.466,-0.525 -0.703,-1.261 -0.703,-2.203zm29.03 -3.571c0,0.657 -0.197,1.367 -0.591,2.117 -0.389,0.75 -0.986,1.467 -1.788,2.143 -0.801,0.678 -1.814,1.228 -3.036,1.64 -1.215,0.418 -2.588,0.623 -4.119,0.623 -3.246,0 -5.782,-0.955 -7.603,-2.866 -1.826,-1.912 -2.739,-4.473 -2.739,-7.691 0,-2.176 0.42,-4.1 1.254,-5.772 0.835,-1.672 2.044,-2.966 3.621,-3.875 1.583,-0.917 3.469,-1.374 5.664,-1.374 1.36,0 2.608,0.199 3.745,0.604 1.13,0.404 2.096,0.922 2.884,1.559 0.789,0.637 1.394,1.314 1.808,2.03 0.42,0.723 0.63,1.394 0.63,2.018 0,0.637 -0.236,1.174 -0.702,1.619 -0.474,0.437 -1.039,0.657 -1.709,0.657 -0.434,0 -0.795,-0.113 -1.084,-0.339 -0.29,-0.225 -0.611,-0.591 -0.973,-1.095 -0.644,-0.982 -1.314,-1.725 -2.01,-2.216 -0.703,-0.491 -1.59,-0.736 -2.668,-0.736 -1.551,0 -2.806,0.61 -3.752,1.837 -0.953,1.222 -1.426,2.894 -1.426,5.017 0,0.995 0.125,1.911 0.368,2.747 0.243,0.836 0.591,1.553 1.058,2.137 0.46,0.59 1.018,1.035 1.676,1.34 0.65,0.305 1.373,0.457 2.155,0.457 1.051,0 1.951,-0.245 2.701,-0.736 0.755,-0.491 1.419,-1.247 1.997,-2.256 0.315,-0.597 0.664,-1.061 1.038,-1.393 0.368,-0.339 0.828,-0.511 1.367,-0.511 0.644,0 1.176,0.252 1.596,0.743 0.421,0.491 0.638,1.015 0.638,1.572zm35.918 -1.094l0 4.432c0,1.073 -0.251,1.879 -0.75,2.415 -0.498,0.536 -1.13,0.81 -1.899,0.81 -0.755,0 -1.38,-0.274 -1.865,-0.816 -0.485,-0.543 -0.73,-1.347 -0.73,-2.409l0 -14.777c0,-2.382 0.855,-3.577 2.557,-3.577 0.867,0 1.497,0.282 1.878,0.836 0.385,0.559 0.599,1.387 0.638,2.476 0.624,-1.089 1.269,-1.919 1.932,-2.476 0.662,-0.556 1.544,-0.836 2.648,-0.836 1.103,0 2.176,0.28 3.213,0.836 1.037,0.557 1.557,1.301 1.557,2.224 0,0.65 -0.219,1.181 -0.664,1.605 -0.44,0.422 -0.92,0.63 -1.432,0.63 -0.191,0 -0.658,-0.121 -1.393,-0.358 -0.741,-0.238 -1.393,-0.358 -1.958,-0.358 -0.769,0 -1.397,0.203 -1.886,0.61 -0.488,0.407 -0.868,1.017 -1.137,1.819 -0.268,0.801 -0.458,1.759 -0.558,2.866 -0.101,1.107 -0.151,2.457 -0.151,4.048zm16.748 0l0 4.432c0,1.073 -0.251,1.879 -0.749,2.415 -0.498,0.536 -1.13,0.81 -1.899,0.81 -0.755,0 -1.381,-0.274 -1.866,-0.816 -0.485,-0.543 -0.729,-1.347 -0.729,-2.409l0 -14.777c0,-2.382 0.854,-3.577 2.556,-3.577 0.867,0 1.497,0.282 1.879,0.836 0.385,0.559 0.598,1.387 0.638,2.476 0.624,-1.089 1.269,-1.919 1.931,-2.476 0.662,-0.556 1.545,-0.836 2.649,-0.836 1.103,0 2.175,0.28 3.213,0.836 1.037,0.557 1.556,1.301 1.556,2.224 0,0.65 -0.219,1.181 -0.663,1.605 -0.441,0.422 -0.92,0.63 -1.432,0.63 -0.191,0 -0.658,-0.121 -1.394,-0.358 -0.74,-0.238 -1.392,-0.358 -1.958,-0.358 -0.768,0 -1.397,0.203 -1.885,0.61 -0.488,0.407 -0.869,1.017 -1.137,1.819 -0.268,0.801 -0.458,1.759 -0.558,2.866 -0.101,1.107 -0.152,2.457 -0.152,4.048zm30.232 -3.126c0,1.586 -0.241,3.042 -0.729,4.374 -0.489,1.333 -1.2,2.479 -2.122,3.436 -0.922,0.958 -2.032,1.693 -3.311,2.203 -1.281,0.51 -2.728,0.77 -4.331,0.77 -1.597,0 -3.03,-0.26 -4.297,-0.776 -1.267,-0.517 -2.374,-1.262 -3.305,-2.23 -0.925,-0.961 -1.639,-2.104 -2.116,-3.417 -0.48,-1.319 -0.723,-2.774 -0.723,-4.366 0,-1.606 0.242,-3.081 0.729,-4.413 0.489,-1.333 1.189,-2.477 2.103,-3.424 0.911,-0.942 2.018,-1.673 3.312,-2.183 1.293,-0.51 2.727,-0.77 4.297,-0.77 1.59,0 3.036,0.26 4.331,0.777 1.293,0.517 2.403,1.264 3.33,2.223 0.925,0.956 1.63,2.098 2.11,3.424 0.477,1.319 0.722,2.78 0.722,4.372zm-5.283 0c0,-2.163 -0.47,-3.845 -1.412,-5.049 -0.941,-1.203 -2.208,-1.805 -3.798,-1.805 -1.031,0 -1.933,0.266 -2.714,0.803 -0.781,0.536 -1.384,1.336 -1.807,2.382 -0.422,1.048 -0.637,2.276 -0.637,3.669 0,1.387 0.209,2.604 0.624,3.636 0.417,1.036 1.012,1.832 1.787,2.383 0.776,0.55 1.696,0.823 2.747,0.823 1.59,0 2.854,-0.605 3.798,-1.818 0.939,-1.206 1.412,-2.887 1.412,-5.024z"/>
  <path class="fil1" d="M119.534 -100.534c1.77,0.551 3.458,1.16 5.036,1.826 2.349,0.839 6.324,2.433 8.388,3.693 -5.804,-1.553 -9.681,-2.946 -13.424,-3.982 -6.036,-1.671 -11.723,-2.414 -24.578,-1.398 -5.691,0.449 -12.951,1.476 -18.366,2.837 -5.172,1.301 -10.455,4.785 -12.008,8.497 9.481,0.039 25.934,0.47 33.565,3.768 -14.192,0.059 -24.908,-0.728 -39.448,1.662 -8.301,1.363 -26.954,4.356 -33.51,7.714 5.603,8.348 2.778,11.278 -7.701,8.869 -0.88,5.613 0.082,12.657 3.687,15.753 0.079,-0.04 0.168,-0.152 0.2,-0.174 3.019,-2.039 1.82,-0.184 3.816,-1.488 -3.355,-11.818 9.409,-10.484 18.197,-9.988 4.278,0.241 8.886,0.566 13.139,1.149 2.13,0.292 4.357,0.645 6.453,1.009 3.581,0.624 3.657,0.479 3.998,3.159 -1.329,-1.854 -0.748,-1.763 -3.549,-2.006 -7.759,-0.674 -28.785,-1.623 -33.817,1.877 -0.081,2.684 1.034,4.323 1.896,6.273l45.551 -0.123c-5.149,0.466 -27.921,2.84 -30.585,4.398 -4.615,2.696 -6.315,4.382 -12.538,0.978 -3.549,-1.943 -10.126,-0.748 -13.935,-0.707 -2.839,-0.626 -3.674,-4.54 -3.843,-4.947 -1.103,-2.641 -1.573,-2.575 -2.186,-5.994 -1.04,-5.8 -1.726,-9.563 0.662,-14.985l7.839 1.968c-1.114,-1.862 -3.941,-3.397 -4.214,-4.687 -1.529,-7.22 29.319,-11.486 35.316,-12.699 5.326,-1.078 8.601,-8.86 15.819,-12.311 10.732,-5.13 33.94,-4.98 50.14,0.059zm-11.142 40.217c0,-0.559 -0.413,-3.889 -0.716,-4.878 -0.245,-0.798 0.814,0.987 0.992,1.459 0.263,0.692 0.989,3.075 1.157,2.974 0.252,-0.152 -0.079,-2.203 -0.159,-2.637 -0.39,-2.11 -2.3,-5.575 -3.475,-6.946 -2.059,-2.377 -5.193,-3.145 -8.654,-3.145 -2.245,0 -4.204,0.525 -5.906,1.588 -1.702,1.063 -3.017,2.639 -3.933,4.713 -0.929,2.074 -1.387,4.504 -1.387,7.26 0,1.565 0.151,3.018 0.444,4.357 0.025,0.113 -0.023,0.968 -0.223,0.391 -0.242,-0.696 -0.663,-2.884 -0.857,-3.161 -0.287,-0.411 -0.379,0.799 -0.343,1.36 0.035,0.541 0.304,2.511 1.096,4.036 0.915,2.048 3.445,3.837 5.132,4.925 1.686,1.089 3.689,1.628 5.977,1.628 3.461,0 6.207,-1.195 8.266,-3.597 2.044,-2.389 2.589,-6.099 2.589,-10.327zm3.042 11.026l-1.804 2.443c-1.296,1.756 -3.253,2.836 -5.305,3.691 -2.051,0.855 -4.367,1.289 -6.935,1.289 -2.558,0 -4.852,-0.434 -6.883,-1.301 -2.032,-0.867 -3.8,-2.111 -5.294,-3.734 -1.484,-1.611 -2.621,-3.524 -3.389,-5.725 -0.768,-2.212 -1.157,-4.646 -1.157,-7.313 0,-2.543 0.348,-4.886 1.043,-7.023l-0.938 0.372c-20.281,6.571 -19.384,-6.227 -12.679,-9.9 4.248,-2.328 7.786,-0.926 12.642,-0.989 5.659,-3.884 12.714,-6.248 21.221,-5.995 -3.306,0.567 -8.613,2.246 -11.784,3.596 -4.18,1.782 -6.267,3.931 -9.437,5.91 -4.563,-0.624 -8.466,-1.033 -10.706,0.994 -0.853,0.77 -1.464,1.893 -1.78,3.491 5.12,0.112 5.268,0.951 12.619,-0.981 1.971,-0.855 2.406,-0.91 4.334,-2.603 1.463,-1.579 3.231,-2.801 5.305,-3.657 2.073,-0.856 4.368,-1.289 6.883,-1.289 2.547,0 4.862,0.433 6.935,1.3 2.073,0.867 3.852,2.113 5.337,3.725 2.523,2.72 3.742,5.863 4.578,9.447l3.79 15.334c0.278,1.127 0.233,2.541 -0.337,3.391 -1.004,1.498 -3.421,0.792 -4.578,-0.354 -0.798,-0.79 -1.357,-2.589 -1.681,-4.119z"/>
 </g>
</svg>
