<?xml version="1.0" encoding="UTF-8"?>
<!DOCTYPE svg PUBLIC "-//W3C//DTD SVG 1.1//EN" "http://www.w3.org/Graphics/SVG/1.1/DTD/svg11.dtd">
<!-- Creator: CorelDRAW -->
<svg xmlns="http://www.w3.org/2000/svg" xml:space="preserve" width="600px" height="375px" version="1.1" style="shape-rendering:geometricPrecision; text-rendering:geometricPrecision; image-rendering:optimizeQuality; fill-rule:evenodd; clip-rule:evenodd"
viewBox="0 0 600 375"
 xmlns:xlink="http://www.w3.org/1999/xlink"
 xmlns:xodm="http://www.corel.com/coreldraw/odm/2003">
 <defs>
  <style type="text/css">
   <![CDATA[
    .fil1 {fill:red}
    .fil0 {fill:red;fill-rule:nonzero}
   ]]>
  </style>
 </defs>
 <g id="Layer_x0020_1">
  <metadata id="CorelCorpID_0Corel-Layer"/>
  <path class="fil0" d="M268.685 170.123c0,0.247 -0.074,0.515 -0.223,0.797 -0.146,0.283 -0.371,0.553 -0.673,0.807 -0.302,0.256 -0.683,0.463 -1.144,0.618 -0.458,0.158 -0.975,0.235 -1.552,0.235 -1.223,0 -2.178,-0.36 -2.864,-1.08 -0.689,-0.72 -1.033,-1.685 -1.033,-2.898 0,-0.819 0.159,-1.544 0.473,-2.174 0.314,-0.63 0.77,-1.118 1.364,-1.46 0.597,-0.346 1.307,-0.518 2.134,-0.518 0.513,0 0.983,0.075 1.411,0.228 0.426,0.152 0.79,0.347 1.087,0.587 0.297,0.24 0.525,0.495 0.681,0.765 0.158,0.272 0.238,0.525 0.238,0.76 0,0.24 -0.089,0.443 -0.265,0.61 -0.178,0.165 -0.391,0.248 -0.644,0.248 -0.163,0 -0.299,-0.043 -0.408,-0.128 -0.109,-0.085 -0.231,-0.223 -0.367,-0.412 -0.242,-0.37 -0.495,-0.65 -0.757,-0.835 -0.265,-0.185 -0.599,-0.278 -1.005,-0.278 -0.585,0 -1.058,0.23 -1.414,0.692 -0.359,0.461 -0.537,1.091 -0.537,1.89 0,0.376 0.047,0.72 0.138,1.035 0.092,0.315 0.223,0.585 0.399,0.806 0.173,0.222 0.384,0.39 0.631,0.505 0.245,0.115 0.518,0.172 0.812,0.172 0.396,0 0.736,-0.092 1.018,-0.277 0.284,-0.185 0.534,-0.47 0.752,-0.85 0.119,-0.225 0.25,-0.401 0.391,-0.525 0.139,-0.128 0.312,-0.193 0.515,-0.193 0.243,0 0.444,0.095 0.602,0.28 0.158,0.185 0.24,0.383 0.24,0.593zm1.832 -5.478l0.218 0 0 -1.202c0,-0.323 0.007,-0.576 0.025,-0.758 0.017,-0.185 0.064,-0.343 0.141,-0.473 0.077,-0.137 0.188,-0.25 0.334,-0.335 0.144,-0.084 0.304,-0.127 0.485,-0.127 0.25,0 0.475,0.095 0.679,0.285 0.136,0.127 0.22,0.283 0.257,0.467 0.037,0.183 0.054,0.443 0.054,0.781l0 1.362 0.726 0c0.28,0 0.495,0.067 0.641,0.2 0.148,0.135 0.223,0.308 0.223,0.515 0,0.27 -0.107,0.458 -0.317,0.565 -0.211,0.107 -0.51,0.16 -0.904,0.16l-0.369 0 0 3.675c0,0.313 0.01,0.555 0.033,0.723 0.022,0.167 0.079,0.305 0.173,0.409 0.097,0.106 0.25,0.158 0.463,0.158 0.114,0 0.272,-0.02 0.47,-0.062 0.198,-0.04 0.354,-0.063 0.463,-0.063 0.161,0 0.305,0.065 0.433,0.195 0.129,0.13 0.191,0.29 0.191,0.48 0,0.323 -0.173,0.568 -0.52,0.738 -0.349,0.172 -0.849,0.257 -1.502,0.257 -0.619,0 -1.087,-0.105 -1.404,-0.315 -0.32,-0.21 -0.528,-0.5 -0.627,-0.872 -0.099,-0.37 -0.148,-0.865 -0.148,-1.485l0 -3.838 -0.26 0c-0.287,0 -0.505,-0.067 -0.654,-0.205 -0.151,-0.135 -0.225,-0.31 -0.225,-0.52 0,-0.207 0.079,-0.38 0.235,-0.515 0.159,-0.133 0.386,-0.2 0.686,-0.2zm10.286 6.823l0 -0.258c-0.237,0.303 -0.485,0.558 -0.747,0.762 -0.26,0.205 -0.545,0.358 -0.854,0.458 -0.31,0.1 -0.661,0.15 -1.057,0.15 -0.481,0 -0.909,-0.1 -1.288,-0.3 -0.379,-0.2 -0.673,-0.475 -0.881,-0.827 -0.245,-0.426 -0.369,-1.035 -0.369,-1.833l0 -3.96c0,-0.402 0.089,-0.7 0.267,-0.897 0.179,-0.198 0.416,-0.298 0.711,-0.298 0.297,0 0.54,0.1 0.723,0.3 0.183,0.2 0.275,0.498 0.275,0.895l0 3.2c0,0.462 0.039,0.853 0.116,1.168 0.077,0.315 0.215,0.562 0.416,0.74 0.2,0.177 0.473,0.267 0.817,0.267 0.334,0 0.648,-0.1 0.943,-0.3 0.295,-0.2 0.51,-0.462 0.646,-0.785 0.111,-0.282 0.166,-0.903 0.166,-1.86l0 -2.43c0,-0.397 0.092,-0.695 0.275,-0.895 0.185,-0.2 0.426,-0.3 0.72,-0.3 0.295,0 0.533,0.1 0.711,0.298 0.18,0.197 0.27,0.495 0.27,0.897l0 5.793c0,0.38 -0.087,0.665 -0.258,0.857 -0.173,0.19 -0.393,0.285 -0.666,0.285 -0.27,0 -0.495,-0.1 -0.671,-0.297 -0.175,-0.198 -0.265,-0.475 -0.265,-0.83zm12.807 -0.088l0 -8.67c0,-0.4 0.089,-0.703 0.265,-0.908 0.176,-0.204 0.413,-0.307 0.713,-0.307 0.297,0 0.539,0.103 0.723,0.305 0.183,0.203 0.275,0.505 0.275,0.91l0 8.67c0,0.405 -0.095,0.707 -0.28,0.91 -0.186,0.202 -0.426,0.305 -0.718,0.305 -0.29,0 -0.525,-0.105 -0.706,-0.315 -0.18,-0.21 -0.272,-0.51 -0.272,-0.9zm6.001 -5.78l0 5.78c0,0.4 -0.094,0.703 -0.282,0.907 -0.188,0.205 -0.426,0.308 -0.716,0.308 -0.289,0 -0.525,-0.105 -0.705,-0.315 -0.181,-0.21 -0.273,-0.51 -0.273,-0.9l0 -5.72c0,-0.397 0.092,-0.695 0.273,-0.895 0.18,-0.2 0.416,-0.3 0.705,-0.3 0.29,0 0.528,0.1 0.716,0.3 0.188,0.2 0.282,0.48 0.282,0.835zm-0.978 -2.065c-0.275,0 -0.51,-0.085 -0.705,-0.255 -0.196,-0.17 -0.293,-0.413 -0.293,-0.725 0,-0.28 0.099,-0.512 0.3,-0.695 0.2,-0.182 0.433,-0.275 0.698,-0.275 0.257,0 0.483,0.082 0.681,0.247 0.198,0.168 0.297,0.408 0.297,0.723 0,0.307 -0.097,0.548 -0.29,0.72 -0.193,0.172 -0.42,0.26 -0.688,0.26zm8.405 3.225l-3.627 4.095 3.88 0c0.314,0 0.552,0.075 0.71,0.223 0.161,0.15 0.24,0.342 0.24,0.575 0,0.225 -0.079,0.407 -0.235,0.55 -0.158,0.142 -0.396,0.212 -0.715,0.212l-5.368 0c-0.376,0 -0.658,-0.083 -0.844,-0.25 -0.186,-0.165 -0.28,-0.393 -0.28,-0.68 0,-0.17 0.065,-0.343 0.196,-0.517 0.131,-0.173 0.401,-0.49 0.812,-0.955 0.436,-0.488 0.832,-0.93 1.186,-1.328 0.356,-0.395 0.685,-0.765 0.99,-1.11 0.305,-0.342 0.557,-0.635 0.757,-0.875 0.201,-0.24 0.362,-0.445 0.483,-0.615l-2.943 0c-0.406,0 -0.713,-0.037 -0.921,-0.11 -0.208,-0.073 -0.312,-0.265 -0.312,-0.577 0,-0.228 0.077,-0.413 0.235,-0.548 0.156,-0.138 0.381,-0.205 0.671,-0.205l4.548 0c0.42,0 0.742,0.062 0.968,0.188 0.225,0.122 0.336,0.347 0.336,0.667 0,0.107 -0.022,0.22 -0.064,0.332 -0.045,0.115 -0.092,0.211 -0.146,0.283 -0.052,0.073 -0.126,0.163 -0.218,0.268 -0.091,0.104 -0.206,0.23 -0.339,0.377zm11.247 -2.115l0.218 0 0 -1.202c0,-0.323 0.007,-0.576 0.025,-0.758 0.017,-0.185 0.064,-0.343 0.141,-0.473 0.077,-0.137 0.188,-0.25 0.334,-0.335 0.143,-0.084 0.304,-0.127 0.485,-0.127 0.25,0 0.475,0.095 0.678,0.285 0.137,0.127 0.221,0.283 0.258,0.467 0.037,0.183 0.054,0.443 0.054,0.781l0 1.362 0.726 0c0.279,0 0.495,0.067 0.641,0.2 0.148,0.135 0.223,0.308 0.223,0.515 0,0.27 -0.107,0.458 -0.317,0.565 -0.211,0.107 -0.51,0.16 -0.904,0.16l-0.369 0 0 3.675c0,0.313 0.01,0.555 0.032,0.723 0.023,0.167 0.08,0.305 0.174,0.409 0.096,0.106 0.25,0.158 0.463,0.158 0.114,0 0.272,-0.02 0.47,-0.062 0.198,-0.04 0.354,-0.063 0.463,-0.063 0.161,0 0.304,0.065 0.433,0.195 0.129,0.13 0.191,0.29 0.191,0.48 0,0.323 -0.173,0.568 -0.52,0.738 -0.349,0.172 -0.849,0.257 -1.503,0.257 -0.619,0 -1.087,-0.105 -1.403,-0.315 -0.32,-0.21 -0.528,-0.5 -0.627,-0.872 -0.099,-0.37 -0.148,-0.865 -0.148,-1.485l0 -3.838 -0.26 0c-0.287,0 -0.505,-0.067 -0.654,-0.205 -0.151,-0.135 -0.225,-0.31 -0.225,-0.52 0,-0.207 0.079,-0.38 0.235,-0.515 0.158,-0.133 0.386,-0.2 0.686,-0.2zm10.286 6.823l0 -0.258c-0.237,0.303 -0.485,0.558 -0.748,0.762 -0.259,0.205 -0.544,0.358 -0.853,0.458 -0.31,0.1 -0.662,0.15 -1.058,0.15 -0.48,0 -0.908,-0.1 -1.287,-0.3 -0.379,-0.2 -0.673,-0.475 -0.881,-0.827 -0.245,-0.426 -0.369,-1.035 -0.369,-1.833l0 -3.96c0,-0.402 0.089,-0.7 0.267,-0.897 0.178,-0.198 0.416,-0.298 0.711,-0.298 0.297,0 0.539,0.1 0.723,0.3 0.183,0.2 0.274,0.498 0.274,0.895l0 3.2c0,0.462 0.04,0.853 0.117,1.168 0.077,0.315 0.215,0.562 0.416,0.74 0.2,0.177 0.472,0.267 0.817,0.267 0.334,0 0.648,-0.1 0.943,-0.3 0.294,-0.2 0.51,-0.462 0.646,-0.785 0.111,-0.282 0.166,-0.903 0.166,-1.86l0 -2.43c0,-0.397 0.091,-0.695 0.275,-0.895 0.185,-0.2 0.425,-0.3 0.72,-0.3 0.295,0 0.532,0.1 0.71,0.298 0.181,0.197 0.27,0.495 0.27,0.897l0 5.793c0,0.38 -0.086,0.665 -0.257,0.857 -0.173,0.19 -0.394,0.285 -0.666,0.285 -0.27,0 -0.495,-0.1 -0.671,-0.297 -0.176,-0.198 -0.265,-0.475 -0.265,-0.83zm10.938 -1.345c0,0.247 -0.075,0.515 -0.223,0.797 -0.146,0.283 -0.372,0.553 -0.674,0.807 -0.302,0.256 -0.683,0.463 -1.143,0.618 -0.458,0.158 -0.976,0.235 -1.552,0.235 -1.223,0 -2.179,-0.36 -2.865,-1.08 -0.688,-0.72 -1.032,-1.685 -1.032,-2.898 0,-0.819 0.158,-1.544 0.473,-2.174 0.314,-0.63 0.769,-1.118 1.364,-1.46 0.596,-0.346 1.307,-0.518 2.134,-0.518 0.512,0 0.983,0.075 1.411,0.228 0.426,0.152 0.79,0.347 1.087,0.587 0.297,0.24 0.525,0.495 0.68,0.765 0.159,0.272 0.238,0.525 0.238,0.76 0,0.24 -0.089,0.443 -0.265,0.61 -0.178,0.165 -0.391,0.248 -0.643,0.248 -0.164,0 -0.3,-0.043 -0.409,-0.128 -0.109,-0.085 -0.23,-0.223 -0.366,-0.412 -0.243,-0.37 -0.495,-0.65 -0.758,-0.835 -0.265,-0.185 -0.599,-0.278 -1.005,-0.278 -0.584,0 -1.057,0.23 -1.414,0.692 -0.359,0.461 -0.537,1.091 -0.537,1.89 0,0.376 0.047,0.72 0.139,1.035 0.091,0.315 0.223,0.585 0.398,0.806 0.174,0.222 0.384,0.39 0.632,0.505 0.245,0.115 0.517,0.172 0.812,0.172 0.396,0 0.735,-0.092 1.017,-0.277 0.285,-0.185 0.535,-0.47 0.753,-0.85 0.119,-0.225 0.25,-0.401 0.391,-0.525 0.139,-0.128 0.312,-0.193 0.515,-0.193 0.243,0 0.443,0.095 0.602,0.28 0.158,0.185 0.24,0.383 0.24,0.593zm13.532 -0.413l0 1.67c0,0.404 -0.094,0.708 -0.282,0.91 -0.188,0.202 -0.426,0.305 -0.715,0.305 -0.285,0 -0.521,-0.103 -0.703,-0.308 -0.183,-0.204 -0.275,-0.507 -0.275,-0.907l0 -5.568c0,-0.897 0.322,-1.347 0.963,-1.347 0.327,0 0.564,0.106 0.708,0.315 0.145,0.21 0.225,0.523 0.24,0.933 0.235,-0.41 0.478,-0.723 0.728,-0.933 0.249,-0.21 0.581,-0.315 0.997,-0.315 0.416,0 0.82,0.105 1.211,0.315 0.391,0.21 0.587,0.49 0.587,0.838 0,0.245 -0.083,0.444 -0.25,0.605 -0.166,0.159 -0.347,0.237 -0.54,0.237 -0.072,0 -0.248,-0.046 -0.525,-0.135 -0.279,-0.09 -0.525,-0.135 -0.737,-0.135 -0.29,0 -0.527,0.077 -0.711,0.23 -0.184,0.153 -0.327,0.383 -0.428,0.685 -0.101,0.302 -0.173,0.663 -0.211,1.08 -0.037,0.417 -0.057,0.926 -0.057,1.525zm6.311 0l0 1.67c0,0.404 -0.095,0.708 -0.283,0.91 -0.187,0.202 -0.425,0.305 -0.715,0.305 -0.285,0 -0.52,-0.103 -0.703,-0.308 -0.183,-0.204 -0.275,-0.507 -0.275,-0.907l0 -5.568c0,-0.897 0.322,-1.347 0.963,-1.347 0.327,0 0.564,0.106 0.708,0.315 0.145,0.21 0.226,0.523 0.24,0.933 0.236,-0.41 0.479,-0.723 0.728,-0.933 0.25,-0.21 0.582,-0.315 0.998,-0.315 0.416,0 0.82,0.105 1.21,0.315 0.391,0.21 0.587,0.49 0.587,0.838 0,0.245 -0.082,0.444 -0.25,0.605 -0.166,0.159 -0.346,0.237 -0.54,0.237 -0.071,0 -0.247,-0.046 -0.524,-0.135 -0.28,-0.09 -0.525,-0.135 -0.738,-0.135 -0.29,0 -0.527,0.077 -0.711,0.23 -0.184,0.153 -0.327,0.383 -0.428,0.685 -0.101,0.302 -0.172,0.663 -0.21,1.08 -0.038,0.417 -0.057,0.926 -0.057,1.525zm11.39 -1.178c0,0.598 -0.091,1.146 -0.274,1.648 -0.185,0.503 -0.453,0.934 -0.8,1.295 -0.348,0.361 -0.766,0.638 -1.248,0.83 -0.482,0.192 -1.027,0.29 -1.631,0.29 -0.602,0 -1.142,-0.098 -1.619,-0.292 -0.478,-0.195 -0.895,-0.476 -1.246,-0.84 -0.348,-0.363 -0.617,-0.793 -0.797,-1.288 -0.181,-0.497 -0.272,-1.045 -0.272,-1.645 0,-0.605 0.091,-1.161 0.275,-1.663 0.184,-0.502 0.447,-0.933 0.792,-1.289 0.343,-0.356 0.76,-0.631 1.248,-0.823 0.487,-0.192 1.027,-0.29 1.619,-0.29 0.599,0 1.144,0.098 1.631,0.292 0.488,0.195 0.906,0.477 1.255,0.838 0.348,0.36 0.614,0.791 0.795,1.29 0.18,0.497 0.272,1.048 0.272,1.647zm-1.99 0c0,-0.814 -0.177,-1.449 -0.532,-1.902 -0.355,-0.453 -0.832,-0.68 -1.431,-0.68 -0.389,0 -0.729,0.1 -1.023,0.303 -0.294,0.202 -0.521,0.503 -0.681,0.897 -0.159,0.395 -0.24,0.858 -0.24,1.382 0,0.523 0.079,0.981 0.235,1.37 0.157,0.391 0.382,0.691 0.674,0.898 0.292,0.207 0.639,0.31 1.035,0.31 0.599,0 1.075,-0.228 1.431,-0.685 0.353,-0.454 0.532,-1.087 0.532,-1.893z"/>
  <path class="fil0" d="M290.715 171.456l-0.018 0.019c-0.347,0.362 -0.765,0.638 -1.248,0.83 -0.483,0.193 -1.027,0.29 -1.631,0.29 -0.602,0 -1.142,-0.097 -1.619,-0.292 -0.478,-0.196 -0.894,-0.475 -1.246,-0.84 -0.349,-0.363 -0.616,-0.793 -0.797,-1.288 -0.18,-0.498 -0.272,-1.045 -0.272,-1.645 0,-0.605 0.092,-1.16 0.275,-1.663 0.185,-0.502 0.448,-0.932 0.792,-1.289 0.344,-0.356 0.76,-0.63 1.248,-0.823 0.487,-0.192 1.027,-0.29 1.619,-0.29 0.599,0 1.144,0.098 1.631,0.292 0.488,0.195 0.906,0.476 1.255,0.838 0.594,0.612 0.881,1.319 1.077,2.125l0.892 3.66c0.094,0.388 -0.094,0.703 -0.283,0.907 -0.188,0.205 -0.425,0.308 -0.715,0.308 -0.29,0 -0.525,-0.105 -0.706,-0.315 -0.168,-0.196 -0.178,-0.48 -0.254,-0.824zm-0.934 -2.924c0,-0.814 -0.178,-1.447 -0.532,-1.902 -0.357,-0.452 -0.832,-0.68 -1.431,-0.68 -0.389,0 -0.728,0.1 -1.023,0.303 -0.294,0.202 -0.522,0.502 -0.681,0.897 -0.16,0.395 -0.24,0.858 -0.24,1.382 0,0.523 0.08,0.981 0.236,1.37 0.158,0.391 0.381,0.691 0.673,0.898 0.292,0.207 0.639,0.31 1.035,0.31 0.599,0 1.074,-0.227 1.431,-0.685 0.354,-0.455 0.532,-1.087 0.532,-1.893z"/>
  <path class="fil0" d="M315.437 171.456l-0.018 0.019c-0.346,0.362 -0.765,0.638 -1.247,0.83 -0.483,0.193 -1.028,0.29 -1.632,0.29 -0.601,0 -1.141,-0.097 -1.619,-0.292 -0.478,-0.196 -0.894,-0.475 -1.245,-0.84 -0.349,-0.363 -0.616,-0.793 -0.797,-1.288 -0.181,-0.498 -0.272,-1.045 -0.272,-1.645 0,-0.605 0.091,-1.16 0.274,-1.663 0.186,-0.502 0.448,-0.932 0.792,-1.289 0.344,-0.356 0.76,-0.63 1.248,-0.823 0.488,-0.192 1.028,-0.29 1.619,-0.29 0.599,0 1.144,0.098 1.632,0.292 0.487,0.195 0.906,0.476 1.255,0.838 0.593,0.612 0.88,1.319 1.077,2.125l0.891 3.66c0.095,0.388 -0.094,0.703 -0.282,0.907 -0.188,0.205 -0.426,0.308 -0.715,0.308 -0.29,0 -0.525,-0.105 -0.706,-0.315 -0.169,-0.196 -0.178,-0.48 -0.255,-0.824zm-0.934 -2.924c0,-0.814 -0.178,-1.447 -0.532,-1.902 -0.356,-0.452 -0.832,-0.68 -1.431,-0.68 -0.388,0 -0.727,0.1 -1.022,0.303 -0.295,0.202 -0.523,0.502 -0.681,0.897 -0.161,0.395 -0.24,0.858 -0.24,1.382 0,0.523 0.079,0.981 0.235,1.37 0.158,0.391 0.381,0.691 0.673,0.898 0.292,0.207 0.639,0.31 1.035,0.31 0.599,0 1.075,-0.227 1.431,-0.685 0.354,-0.455 0.532,-1.087 0.532,-1.893z"/>
  <path class="fil0" d="M347.581 171.456l-0.018 0.019c-0.346,0.362 -0.765,0.638 -1.248,0.83 -0.482,0.193 -1.027,0.29 -1.631,0.29 -0.602,0 -1.141,-0.097 -1.619,-0.292 -0.478,-0.196 -0.894,-0.475 -1.245,-0.84 -0.349,-0.363 -0.617,-0.793 -0.798,-1.288 -0.18,-0.498 -0.272,-1.045 -0.272,-1.645 0,-0.605 0.092,-1.16 0.275,-1.663 0.186,-0.502 0.448,-0.932 0.792,-1.289 0.344,-0.356 0.76,-0.63 1.248,-0.823 0.488,-0.192 1.027,-0.29 1.619,-0.29 0.599,0 1.144,0.098 1.631,0.292 0.488,0.195 0.906,0.476 1.256,0.838 0.593,0.612 0.88,1.319 1.077,2.125l0.891 3.66c0.095,0.388 -0.094,0.703 -0.282,0.907 -0.188,0.205 -0.426,0.308 -0.716,0.308 -0.289,0 -0.525,-0.105 -0.705,-0.315 -0.169,-0.196 -0.179,-0.48 -0.255,-0.824zm-0.934 -2.924c0,-0.814 -0.178,-1.447 -0.532,-1.902 -0.357,-0.452 -0.832,-0.68 -1.431,-0.68 -0.389,0 -0.728,0.1 -1.022,0.303 -0.295,0.202 -0.523,0.502 -0.681,0.897 -0.161,0.395 -0.24,0.858 -0.24,1.382 0,0.523 0.079,0.981 0.235,1.37 0.158,0.391 0.381,0.691 0.673,0.898 0.292,0.207 0.639,0.31 1.035,0.31 0.599,0 1.074,-0.227 1.431,-0.685 0.354,-0.455 0.532,-1.087 0.532,-1.893z"/>
  <path class="fil1" d="M251.851 153.991c-2.145,0.17 -4.88,0.556 -6.92,1.069 -1.949,0.491 -3.939,1.803 -4.524,3.202 3.572,0.014 9.771,0.177 12.646,1.419 -5.347,0.023 -9.385,-0.274 -14.863,0.627 -3.127,0.513 -10.155,1.641 -12.625,2.906 2.111,3.145 1.047,4.249 -2.902,3.342 -0.331,2.114 0.031,4.768 1.389,5.935 0.03,-0.016 0.064,-0.058 0.076,-0.066 1.137,-0.768 0.685,-0.069 1.438,-0.56 -1.265,-4.453 3.545,-3.95 6.855,-3.764 1.612,0.091 3.348,0.214 4.951,0.433 0.802,0.11 1.641,0.243 2.431,0.38 1.349,0.235 1.378,0.181 1.507,1.191 -0.501,-0.699 -0.283,-0.665 -1.338,-0.756 -2.923,-0.254 -10.845,-0.612 -12.741,0.707 -0.03,1.011 0.39,1.629 0.714,2.363l17.163 -0.046c-1.941,0.176 -10.52,1.07 -11.524,1.657 -1.738,1.016 -2.379,1.651 -4.724,0.369 -1.337,-0.732 -3.815,-0.282 -5.25,-0.267 -1.07,-0.235 -1.384,-1.71 -1.448,-1.863 -0.415,-0.996 -0.593,-0.971 -0.824,-2.259 -0.391,-2.185 -0.65,-3.603 0.25,-5.646l2.954 0.742c-0.42,-0.702 -1.486,-1.28 -1.589,-1.766 -0.576,-2.72 11.047,-4.328 13.307,-4.785 2.006,-0.406 3.24,-3.338 5.96,-4.638 4.485,-2.144 14.755,-1.841 20.788,0.71 0.885,0.316 2.383,0.917 3.161,1.391 -5.713,-1.528 -6.472,-2.646 -14.318,-2.027zm5.062 15.101c0,-0.211 -0.156,-1.466 -0.27,-1.838 -0.092,-0.301 0.307,0.372 0.374,0.549 0.099,0.261 0.372,1.159 0.436,1.121 0.095,-0.057 -0.03,-0.83 -0.06,-0.994 -0.147,-0.795 -0.867,-2.1 -1.309,-2.617 -0.776,-0.895 -1.957,-1.185 -3.261,-1.185 -0.846,0 -1.584,0.198 -2.225,0.599 -0.642,0.4 -1.137,0.994 -1.482,1.776 -0.35,0.781 -0.522,1.696 -0.522,2.735 0,0.589 0.056,1.137 0.167,1.641 0.009,0.043 -0.009,0.365 -0.084,0.148 -0.091,-0.263 -0.25,-1.087 -0.323,-1.191 -0.108,-0.155 -0.143,0.301 -0.129,0.512 0.013,0.204 0.114,0.946 0.412,1.52 0.345,0.772 1.299,1.446 1.934,1.856 0.636,0.41 1.39,0.614 2.252,0.614 1.304,0 2.339,-0.451 3.114,-1.355 0.771,-0.901 0.976,-2.299 0.976,-3.891zm1.146 4.154l-0.68 0.92c-0.488,0.662 -1.225,1.069 -1.998,1.391 -0.773,0.322 -1.646,0.486 -2.613,0.486 -0.964,0 -1.828,-0.164 -2.594,-0.491 -0.765,-0.326 -1.431,-0.795 -1.994,-1.407 -0.559,-0.607 -0.988,-1.327 -1.277,-2.157 -0.289,-0.833 -0.436,-1.75 -0.436,-2.755 0,-0.958 0.131,-1.841 0.393,-2.646l-0.354 0.14c-7.641,2.476 -7.303,-2.346 -4.777,-3.73 1.601,-0.877 2.934,-0.349 4.764,-0.372 2.132,-1.463 4.79,-2.354 7.995,-2.259 -1.246,0.214 -3.245,0.846 -4.44,1.355 -1.575,0.671 -2.361,1.481 -3.555,2.226 -1.72,-0.234 -3.19,-0.389 -4.034,0.375 -0.321,0.29 -0.552,0.713 -0.671,1.315 1.929,0.042 1.985,0.359 4.754,-0.369 0.744,-0.322 0.907,-0.343 1.634,-0.981 0.551,-0.595 1.217,-1.055 1.998,-1.378 0.781,-0.322 1.646,-0.486 2.594,-0.486 0.959,0 1.832,0.164 2.613,0.49 0.781,0.327 1.451,0.796 2.01,1.404 0.951,1.025 1.41,2.209 1.725,3.559l1.428 5.777c0.105,0.425 0.088,0.958 -0.127,1.278 -0.378,0.564 -1.289,0.299 -1.725,-0.133 -0.3,-0.298 -0.511,-0.976 -0.633,-1.552z"/>
 </g>
</svg>
