<?xml version="1.0" encoding="UTF-8"?>
<!DOCTYPE svg PUBLIC "-//W3C//DTD SVG 1.1//EN" "http://www.w3.org/Graphics/SVG/1.1/DTD/svg11.dtd">
<!-- Creator: CorelDRAW -->
<svg xmlns="http://www.w3.org/2000/svg" xml:space="preserve" width="200px" height="125px" version="1.1" style="shape-rendering:geometricPrecision; text-rendering:geometricPrecision; image-rendering:optimizeQuality; fill-rule:evenodd; clip-rule:evenodd"
viewBox="0 0 200 125"
 xmlns:xlink="http://www.w3.org/1999/xlink"
 xmlns:xodm="http://www.corel.com/coreldraw/odm/2003">
 <defs>
  <style type="text/css">
   <![CDATA[
    .fil1 {fill:red}
    .fil0 {fill:red;fill-rule:nonzero}
   ]]>
  </style>
 </defs>
 <g id="Layer_x0020_1">
  <metadata id="CorelCorpID_0Corel-Layer"/>
  <path class="fil0" d="M89.562 56.708c0,0.082 -0.025,0.171 -0.075,0.265 -0.048,0.095 -0.123,0.185 -0.224,0.269 -0.101,0.086 -0.228,0.155 -0.381,0.206 -0.153,0.053 -0.325,0.079 -0.518,0.079 -0.407,0 -0.726,-0.12 -0.954,-0.36 -0.23,-0.24 -0.345,-0.562 -0.345,-0.966 0,-0.273 0.053,-0.515 0.158,-0.725 0.105,-0.21 0.257,-0.373 0.455,-0.487 0.199,-0.115 0.435,-0.172 0.711,-0.172 0.171,0 0.328,0.025 0.47,0.076 0.142,0.05 0.264,0.115 0.363,0.195 0.099,0.08 0.175,0.165 0.227,0.255 0.052,0.091 0.079,0.175 0.079,0.254 0,0.08 -0.03,0.147 -0.088,0.203 -0.06,0.055 -0.131,0.083 -0.215,0.083 -0.054,0 -0.1,-0.015 -0.136,-0.043 -0.036,-0.028 -0.077,-0.074 -0.122,-0.137 -0.081,-0.124 -0.165,-0.217 -0.253,-0.279 -0.088,-0.061 -0.199,-0.092 -0.335,-0.092 -0.195,0 -0.352,0.076 -0.471,0.23 -0.12,0.154 -0.179,0.364 -0.179,0.63 0,0.126 0.016,0.24 0.046,0.345 0.031,0.105 0.074,0.195 0.133,0.269 0.058,0.074 0.128,0.13 0.21,0.168 0.082,0.039 0.173,0.058 0.271,0.058 0.132,0 0.245,-0.031 0.339,-0.093 0.095,-0.061 0.178,-0.156 0.251,-0.283 0.04,-0.075 0.083,-0.134 0.13,-0.175 0.047,-0.043 0.104,-0.064 0.172,-0.064 0.081,0 0.148,0.031 0.201,0.093 0.052,0.062 0.08,0.128 0.08,0.198zm0.61 -1.826l0.073 0 0 -0.401c0,-0.108 0.002,-0.192 0.008,-0.253 0.006,-0.061 0.022,-0.114 0.047,-0.157 0.026,-0.046 0.063,-0.084 0.112,-0.112 0.048,-0.028 0.101,-0.042 0.161,-0.042 0.084,0 0.159,0.031 0.227,0.095 0.045,0.042 0.073,0.094 0.085,0.155 0.013,0.061 0.018,0.148 0.018,0.261l0 0.454 0.242 0c0.094,0 0.165,0.022 0.214,0.066 0.049,0.045 0.074,0.103 0.074,0.172 0,0.09 -0.035,0.153 -0.105,0.188 -0.071,0.036 -0.17,0.054 -0.302,0.054l-0.123 0 0 1.225c0,0.104 0.004,0.185 0.011,0.241 0.008,0.055 0.027,0.101 0.058,0.136 0.032,0.035 0.083,0.053 0.154,0.053 0.038,0 0.091,-0.007 0.157,-0.021 0.066,-0.013 0.118,-0.021 0.154,-0.021 0.054,0 0.102,0.022 0.145,0.065 0.043,0.043 0.063,0.097 0.063,0.16 0,0.108 -0.057,0.189 -0.173,0.246 -0.116,0.057 -0.283,0.086 -0.501,0.086 -0.206,0 -0.362,-0.035 -0.468,-0.105 -0.106,-0.07 -0.176,-0.167 -0.209,-0.291 -0.033,-0.123 -0.049,-0.288 -0.049,-0.495l0 -1.279 -0.087 0c-0.095,0 -0.168,-0.023 -0.218,-0.069 -0.05,-0.045 -0.075,-0.103 -0.075,-0.173 0,-0.069 0.027,-0.127 0.079,-0.172 0.053,-0.044 0.128,-0.066 0.228,-0.066zm3.429 2.274l0 -0.086c-0.079,0.101 -0.162,0.186 -0.249,0.254 -0.087,0.068 -0.182,0.119 -0.285,0.153 -0.103,0.033 -0.22,0.05 -0.352,0.05 -0.16,0 -0.303,-0.034 -0.429,-0.1 -0.127,-0.067 -0.225,-0.159 -0.294,-0.276 -0.082,-0.142 -0.123,-0.345 -0.123,-0.611l0 -1.32c0,-0.134 0.03,-0.233 0.089,-0.299 0.06,-0.066 0.139,-0.099 0.237,-0.099 0.099,0 0.18,0.033 0.241,0.1 0.061,0.066 0.092,0.166 0.092,0.298l0 1.067c0,0.154 0.013,0.284 0.038,0.389 0.026,0.105 0.072,0.187 0.139,0.247 0.067,0.059 0.158,0.089 0.272,0.089 0.112,0 0.216,-0.034 0.315,-0.1 0.098,-0.067 0.17,-0.154 0.215,-0.262 0.037,-0.094 0.055,-0.301 0.055,-0.62l0 -0.81c0,-0.132 0.031,-0.232 0.092,-0.298 0.062,-0.067 0.142,-0.1 0.24,-0.1 0.098,0 0.178,0.033 0.237,0.099 0.06,0.066 0.09,0.165 0.09,0.299l0 1.931c0,0.127 -0.029,0.222 -0.086,0.286 -0.058,0.063 -0.131,0.095 -0.222,0.095 -0.09,0 -0.165,-0.034 -0.224,-0.099 -0.058,-0.066 -0.088,-0.159 -0.088,-0.277zm4.269 -0.029l0 -2.89c0,-0.134 0.03,-0.235 0.088,-0.303 0.059,-0.068 0.138,-0.102 0.238,-0.102 0.099,0 0.18,0.034 0.241,0.101 0.061,0.068 0.092,0.169 0.092,0.304l0 2.89c0,0.135 -0.032,0.235 -0.094,0.303 -0.062,0.067 -0.142,0.102 -0.239,0.102 -0.097,0 -0.175,-0.035 -0.235,-0.105 -0.06,-0.07 -0.091,-0.17 -0.091,-0.3zm2 -1.927l0 1.927c0,0.133 -0.031,0.234 -0.094,0.302 -0.062,0.068 -0.142,0.103 -0.238,0.103 -0.097,0 -0.175,-0.035 -0.235,-0.105 -0.061,-0.07 -0.091,-0.17 -0.091,-0.3l0 -1.907c0,-0.132 0.03,-0.232 0.091,-0.298 0.06,-0.067 0.138,-0.1 0.235,-0.1 0.096,0 0.176,0.033 0.238,0.1 0.063,0.066 0.094,0.16 0.094,0.278zm-0.326 -0.688c-0.091,0 -0.17,-0.029 -0.235,-0.085 -0.065,-0.057 -0.097,-0.138 -0.097,-0.242 0,-0.093 0.033,-0.171 0.1,-0.232 0.066,-0.06 0.144,-0.091 0.232,-0.091 0.086,0 0.161,0.027 0.227,0.082 0.066,0.056 0.099,0.136 0.099,0.241 0,0.102 -0.032,0.183 -0.096,0.24 -0.065,0.057 -0.14,0.087 -0.23,0.087zm2.802 1.075l-1.209 1.365 1.293 0c0.105,0 0.184,0.025 0.237,0.074 0.054,0.05 0.08,0.114 0.08,0.192 0,0.075 -0.026,0.135 -0.078,0.183 -0.053,0.047 -0.132,0.071 -0.239,0.071l-1.789 0c-0.125,0 -0.219,-0.028 -0.281,-0.084 -0.062,-0.055 -0.094,-0.131 -0.094,-0.226 0,-0.057 0.022,-0.115 0.066,-0.173 0.043,-0.057 0.133,-0.163 0.27,-0.318 0.146,-0.163 0.278,-0.31 0.396,-0.443 0.118,-0.131 0.228,-0.255 0.33,-0.37 0.101,-0.114 0.185,-0.211 0.252,-0.291 0.067,-0.08 0.121,-0.149 0.161,-0.205l-0.981 0c-0.135,0 -0.238,-0.013 -0.307,-0.037 -0.069,-0.024 -0.104,-0.088 -0.104,-0.192 0,-0.076 0.026,-0.138 0.078,-0.183 0.052,-0.046 0.127,-0.068 0.224,-0.068l1.516 0c0.14,0 0.247,0.02 0.323,0.062 0.075,0.041 0.112,0.116 0.112,0.223 0,0.035 -0.008,0.073 -0.022,0.11 -0.015,0.039 -0.03,0.071 -0.048,0.095 -0.018,0.024 -0.042,0.054 -0.073,0.089 -0.03,0.035 -0.069,0.077 -0.113,0.126zm3.749 -0.705l0.073 0 0 -0.401c0,-0.108 0.002,-0.192 0.008,-0.253 0.006,-0.061 0.021,-0.114 0.047,-0.157 0.026,-0.046 0.063,-0.084 0.111,-0.112 0.048,-0.028 0.102,-0.042 0.162,-0.042 0.083,0 0.158,0.031 0.226,0.095 0.046,0.042 0.074,0.094 0.086,0.155 0.012,0.061 0.018,0.148 0.018,0.261l0 0.454 0.242 0c0.093,0 0.165,0.022 0.214,0.066 0.049,0.045 0.074,0.103 0.074,0.172 0,0.09 -0.036,0.153 -0.106,0.188 -0.07,0.036 -0.17,0.054 -0.301,0.054l-0.123 0 0 1.225c0,0.104 0.003,0.185 0.011,0.241 0.007,0.055 0.026,0.101 0.058,0.136 0.032,0.035 0.083,0.053 0.154,0.053 0.038,0 0.091,-0.007 0.157,-0.021 0.066,-0.013 0.118,-0.021 0.154,-0.021 0.054,0 0.101,0.022 0.144,0.065 0.043,0.043 0.064,0.097 0.064,0.16 0,0.108 -0.058,0.189 -0.173,0.246 -0.117,0.057 -0.283,0.086 -0.501,0.086 -0.207,0 -0.363,-0.035 -0.468,-0.105 -0.107,-0.07 -0.176,-0.167 -0.209,-0.291 -0.033,-0.123 -0.049,-0.288 -0.049,-0.495l0 -1.279 -0.087 0c-0.096,0 -0.168,-0.023 -0.218,-0.069 -0.05,-0.045 -0.075,-0.103 -0.075,-0.173 0,-0.069 0.026,-0.127 0.078,-0.172 0.053,-0.044 0.129,-0.066 0.229,-0.066zm3.429 2.274l0 -0.086c-0.079,0.101 -0.162,0.186 -0.25,0.254 -0.086,0.068 -0.181,0.119 -0.284,0.153 -0.103,0.033 -0.221,0.05 -0.353,0.05 -0.16,0 -0.302,-0.034 -0.429,-0.1 -0.126,-0.067 -0.224,-0.159 -0.293,-0.276 -0.082,-0.142 -0.123,-0.345 -0.123,-0.611l0 -1.32c0,-0.134 0.029,-0.233 0.089,-0.299 0.059,-0.066 0.138,-0.099 0.237,-0.099 0.099,0 0.179,0.033 0.241,0.1 0.061,0.066 0.091,0.166 0.091,0.298l0 1.067c0,0.154 0.013,0.284 0.039,0.389 0.026,0.105 0.072,0.187 0.139,0.247 0.066,0.059 0.157,0.089 0.272,0.089 0.111,0 0.216,-0.034 0.314,-0.1 0.098,-0.067 0.17,-0.154 0.216,-0.262 0.037,-0.094 0.055,-0.301 0.055,-0.62l0 -0.81c0,-0.132 0.03,-0.232 0.092,-0.298 0.061,-0.067 0.141,-0.1 0.24,-0.1 0.098,0 0.177,0.033 0.236,0.099 0.061,0.066 0.09,0.165 0.09,0.299l0 1.931c0,0.127 -0.028,0.222 -0.085,0.286 -0.058,0.063 -0.132,0.095 -0.222,0.095 -0.09,0 -0.165,-0.034 -0.224,-0.099 -0.059,-0.066 -0.088,-0.159 -0.088,-0.277zm3.646 -0.448c0,0.082 -0.025,0.171 -0.075,0.265 -0.048,0.095 -0.124,0.185 -0.224,0.269 -0.101,0.086 -0.228,0.155 -0.381,0.206 -0.153,0.053 -0.326,0.079 -0.518,0.079 -0.407,0 -0.726,-0.12 -0.955,-0.36 -0.229,-0.24 -0.344,-0.562 -0.344,-0.966 0,-0.273 0.053,-0.515 0.158,-0.725 0.105,-0.21 0.256,-0.373 0.455,-0.487 0.198,-0.115 0.435,-0.172 0.711,-0.172 0.171,0 0.328,0.025 0.47,0.076 0.142,0.05 0.264,0.115 0.363,0.195 0.099,0.08 0.175,0.165 0.226,0.255 0.053,0.091 0.08,0.175 0.08,0.254 0,0.08 -0.03,0.147 -0.089,0.203 -0.059,0.055 -0.13,0.083 -0.214,0.083 -0.055,0 -0.1,-0.015 -0.136,-0.043 -0.037,-0.028 -0.077,-0.074 -0.122,-0.137 -0.081,-0.124 -0.165,-0.217 -0.253,-0.279 -0.088,-0.061 -0.2,-0.092 -0.335,-0.092 -0.195,0 -0.352,0.076 -0.471,0.23 -0.12,0.154 -0.179,0.364 -0.179,0.63 0,0.126 0.015,0.24 0.046,0.345 0.03,0.105 0.074,0.195 0.133,0.269 0.058,0.074 0.128,0.13 0.21,0.168 0.082,0.039 0.173,0.058 0.271,0.058 0.132,0 0.245,-0.031 0.339,-0.093 0.095,-0.061 0.178,-0.156 0.251,-0.283 0.04,-0.075 0.083,-0.134 0.13,-0.175 0.047,-0.043 0.104,-0.064 0.172,-0.064 0.081,0 0.148,0.031 0.201,0.093 0.052,0.062 0.08,0.128 0.08,0.198zm4.51 -0.138l0 0.557c0,0.134 -0.031,0.236 -0.094,0.303 -0.062,0.067 -0.142,0.102 -0.238,0.102 -0.095,0 -0.174,-0.035 -0.234,-0.103 -0.061,-0.068 -0.092,-0.169 -0.092,-0.302l0 -1.856c0,-0.299 0.107,-0.449 0.321,-0.449 0.109,0 0.188,0.035 0.236,0.105 0.048,0.07 0.075,0.174 0.08,0.311 0.078,-0.137 0.159,-0.241 0.243,-0.311 0.083,-0.07 0.193,-0.105 0.332,-0.105 0.139,0 0.273,0.035 0.404,0.105 0.13,0.07 0.195,0.163 0.195,0.279 0,0.082 -0.027,0.148 -0.083,0.202 -0.055,0.053 -0.116,0.079 -0.18,0.079 -0.024,0 -0.083,-0.016 -0.175,-0.045 -0.093,-0.03 -0.175,-0.045 -0.246,-0.045 -0.096,0 -0.175,0.025 -0.237,0.076 -0.061,0.051 -0.109,0.128 -0.142,0.229 -0.034,0.1 -0.058,0.221 -0.071,0.36 -0.012,0.139 -0.019,0.308 -0.019,0.508zm2.104 0l0 0.557c0,0.134 -0.032,0.236 -0.094,0.303 -0.063,0.067 -0.142,0.102 -0.239,0.102 -0.095,0 -0.173,-0.035 -0.234,-0.103 -0.061,-0.068 -0.092,-0.169 -0.092,-0.302l0 -1.856c0,-0.299 0.108,-0.449 0.321,-0.449 0.109,0 0.188,0.035 0.236,0.105 0.049,0.07 0.076,0.174 0.08,0.311 0.079,-0.137 0.16,-0.241 0.243,-0.311 0.083,-0.07 0.194,-0.105 0.333,-0.105 0.138,0 0.273,0.035 0.403,0.105 0.13,0.07 0.196,0.163 0.196,0.279 0,0.082 -0.028,0.148 -0.084,0.202 -0.055,0.053 -0.115,0.079 -0.18,0.079 -0.023,0 -0.082,-0.016 -0.174,-0.045 -0.094,-0.03 -0.175,-0.045 -0.246,-0.045 -0.097,0 -0.176,0.025 -0.237,0.076 -0.062,0.051 -0.109,0.128 -0.143,0.229 -0.034,0.1 -0.057,0.221 -0.07,0.36 -0.013,0.139 -0.019,0.308 -0.019,0.508zm3.797 -0.393c0,0.2 -0.031,0.382 -0.092,0.55 -0.061,0.167 -0.151,0.311 -0.266,0.431 -0.116,0.121 -0.256,0.213 -0.416,0.277 -0.161,0.064 -0.343,0.097 -0.544,0.097 -0.201,0 -0.381,-0.033 -0.54,-0.098 -0.159,-0.065 -0.298,-0.158 -0.415,-0.28 -0.116,-0.121 -0.206,-0.264 -0.266,-0.429 -0.06,-0.166 -0.09,-0.348 -0.09,-0.548 0,-0.202 0.03,-0.387 0.091,-0.555 0.062,-0.167 0.149,-0.311 0.264,-0.429 0.115,-0.119 0.254,-0.211 0.416,-0.275 0.163,-0.064 0.343,-0.096 0.54,-0.096 0.2,0 0.381,0.032 0.544,0.097 0.162,0.065 0.302,0.159 0.418,0.279 0.116,0.12 0.205,0.264 0.265,0.43 0.06,0.166 0.091,0.35 0.091,0.549zm-0.664 0c0,-0.271 -0.059,-0.483 -0.177,-0.634 -0.118,-0.151 -0.277,-0.226 -0.477,-0.226 -0.13,0 -0.243,0.033 -0.341,0.101 -0.098,0.067 -0.174,0.167 -0.227,0.299 -0.053,0.131 -0.08,0.286 -0.08,0.46 0,0.175 0.026,0.327 0.078,0.457 0.053,0.13 0.128,0.23 0.225,0.299 0.097,0.069 0.213,0.104 0.345,0.104 0.2,0 0.358,-0.076 0.477,-0.229 0.118,-0.151 0.177,-0.362 0.177,-0.631z"/>
  <path class="fil0" d="M96.905 57.152l-0.006 0.006c-0.116,0.121 -0.255,0.213 -0.416,0.277 -0.161,0.064 -0.342,0.097 -0.544,0.097 -0.2,0 -0.38,-0.033 -0.539,-0.098 -0.16,-0.065 -0.298,-0.158 -0.416,-0.28 -0.116,-0.121 -0.205,-0.264 -0.265,-0.429 -0.06,-0.166 -0.091,-0.348 -0.091,-0.548 0,-0.202 0.031,-0.387 0.092,-0.555 0.061,-0.167 0.149,-0.31 0.264,-0.429 0.114,-0.119 0.253,-0.21 0.416,-0.275 0.162,-0.064 0.342,-0.096 0.539,-0.096 0.2,0 0.382,0.032 0.544,0.097 0.163,0.065 0.302,0.159 0.418,0.279 0.198,0.204 0.294,0.44 0.359,0.709l0.298 1.22c0.031,0.129 -0.032,0.234 -0.095,0.302 -0.062,0.068 -0.141,0.103 -0.238,0.103 -0.097,0 -0.175,-0.035 -0.235,-0.105 -0.056,-0.066 -0.06,-0.16 -0.085,-0.275zm-0.311 -0.975c0,-0.271 -0.06,-0.482 -0.178,-0.634 -0.119,-0.15 -0.277,-0.226 -0.477,-0.226 -0.129,0 -0.242,0.033 -0.341,0.101 -0.098,0.067 -0.174,0.167 -0.227,0.299 -0.053,0.131 -0.08,0.286 -0.08,0.46 0,0.175 0.027,0.327 0.079,0.457 0.053,0.13 0.127,0.23 0.224,0.299 0.098,0.069 0.213,0.104 0.345,0.104 0.2,0 0.358,-0.076 0.477,-0.229 0.118,-0.151 0.178,-0.362 0.178,-0.631z"/>
  <path class="fil0" d="M105.146 57.152l-0.006 0.006c-0.116,0.121 -0.255,0.213 -0.416,0.277 -0.161,0.064 -0.343,0.097 -0.544,0.097 -0.2,0 -0.38,-0.033 -0.54,-0.098 -0.159,-0.065 -0.298,-0.158 -0.415,-0.28 -0.116,-0.121 -0.205,-0.264 -0.265,-0.429 -0.061,-0.166 -0.091,-0.348 -0.091,-0.548 0,-0.202 0.03,-0.387 0.091,-0.555 0.062,-0.167 0.15,-0.31 0.264,-0.429 0.115,-0.119 0.254,-0.21 0.416,-0.275 0.163,-0.064 0.343,-0.096 0.54,-0.096 0.2,0 0.381,0.032 0.544,0.097 0.162,0.065 0.302,0.159 0.418,0.279 0.198,0.204 0.294,0.44 0.359,0.709l0.297 1.22c0.032,0.129 -0.031,0.234 -0.094,0.302 -0.062,0.068 -0.142,0.103 -0.238,0.103 -0.097,0 -0.175,-0.035 -0.235,-0.105 -0.057,-0.066 -0.06,-0.16 -0.085,-0.275zm-0.312 -0.975c0,-0.271 -0.059,-0.482 -0.177,-0.634 -0.119,-0.15 -0.277,-0.226 -0.477,-0.226 -0.129,0 -0.242,0.033 -0.341,0.101 -0.098,0.067 -0.174,0.167 -0.227,0.299 -0.053,0.131 -0.08,0.286 -0.08,0.46 0,0.175 0.027,0.327 0.079,0.457 0.052,0.13 0.127,0.23 0.224,0.299 0.097,0.069 0.213,0.104 0.345,0.104 0.2,0 0.358,-0.076 0.477,-0.229 0.118,-0.151 0.177,-0.362 0.177,-0.631z"/>
  <path class="fil0" d="M115.86 57.152l-0.006 0.006c-0.115,0.121 -0.255,0.213 -0.416,0.277 -0.16,0.064 -0.342,0.097 -0.543,0.097 -0.201,0 -0.381,-0.033 -0.54,-0.098 -0.159,-0.065 -0.298,-0.158 -0.415,-0.28 -0.116,-0.121 -0.206,-0.264 -0.266,-0.429 -0.06,-0.166 -0.091,-0.348 -0.091,-0.548 0,-0.202 0.031,-0.387 0.092,-0.555 0.062,-0.167 0.149,-0.31 0.264,-0.429 0.115,-0.119 0.253,-0.21 0.416,-0.275 0.163,-0.064 0.342,-0.096 0.54,-0.096 0.199,0 0.381,0.032 0.543,0.097 0.163,0.065 0.302,0.159 0.419,0.279 0.198,0.204 0.293,0.44 0.359,0.709l0.297 1.22c0.032,0.129 -0.031,0.234 -0.094,0.302 -0.063,0.068 -0.142,0.103 -0.239,0.103 -0.096,0 -0.175,-0.035 -0.235,-0.105 -0.056,-0.066 -0.059,-0.16 -0.085,-0.275zm-0.311 -0.975c0,-0.271 -0.059,-0.482 -0.177,-0.634 -0.119,-0.15 -0.278,-0.226 -0.477,-0.226 -0.13,0 -0.243,0.033 -0.341,0.101 -0.098,0.067 -0.174,0.167 -0.227,0.299 -0.054,0.131 -0.08,0.286 -0.08,0.46 0,0.175 0.026,0.327 0.078,0.457 0.053,0.13 0.127,0.23 0.225,0.299 0.097,0.069 0.213,0.104 0.345,0.104 0.199,0 0.358,-0.076 0.477,-0.229 0.118,-0.151 0.177,-0.362 0.177,-0.631z"/>
  <path class="fil1" d="M83.95 51.33c-0.715,0.057 -1.626,0.186 -2.306,0.357 -0.65,0.163 -1.313,0.601 -1.508,1.067 1.19,0.005 3.257,0.059 4.215,0.473 -1.782,0.008 -3.128,-0.091 -4.954,0.209 -1.043,0.171 -3.385,0.547 -4.209,0.969 0.704,1.048 0.349,1.416 -0.967,1.114 -0.11,0.704 0.01,1.589 0.463,1.978 0.01,-0.005 0.021,-0.019 0.025,-0.022 0.379,-0.256 0.229,-0.023 0.48,-0.187 -0.422,-1.484 1.181,-1.316 2.285,-1.254 0.537,0.03 1.116,0.071 1.65,0.144 0.267,0.037 0.547,0.081 0.81,0.127 0.45,0.078 0.46,0.06 0.503,0.397 -0.167,-0.233 -0.095,-0.222 -0.446,-0.252 -0.975,-0.085 -3.615,-0.204 -4.247,0.235 -0.01,0.337 0.13,0.543 0.238,0.788l5.721 -0.015c-0.647,0.058 -3.507,0.356 -3.842,0.552 -0.579,0.339 -0.793,0.55 -1.574,0.123 -0.446,-0.244 -1.272,-0.094 -1.75,-0.089 -0.357,-0.078 -0.462,-0.57 -0.483,-0.621 -0.138,-0.332 -0.198,-0.324 -0.275,-0.753 -0.13,-0.728 -0.216,-1.201 0.084,-1.882l0.984 0.247c-0.14,-0.234 -0.495,-0.426 -0.529,-0.588 -0.192,-0.907 3.682,-1.443 4.435,-1.595 0.669,-0.136 1.08,-1.113 1.987,-1.546 1.495,-0.715 4.918,-0.614 6.929,0.236 0.295,0.106 0.795,0.306 1.054,0.464 -1.904,-0.509 -2.157,-0.882 -4.773,-0.676zm1.688 5.034c0,-0.07 -0.052,-0.489 -0.09,-0.613 -0.031,-0.1 0.102,0.124 0.124,0.183 0.033,0.087 0.124,0.387 0.146,0.374 0.031,-0.019 -0.01,-0.277 -0.02,-0.331 -0.049,-0.265 -0.289,-0.7 -0.437,-0.873 -0.258,-0.298 -0.652,-0.395 -1.087,-0.395 -0.282,0 -0.528,0.066 -0.741,0.2 -0.214,0.133 -0.379,0.331 -0.494,0.592 -0.117,0.26 -0.174,0.565 -0.174,0.912 0,0.196 0.018,0.379 0.055,0.547 0.003,0.014 -0.003,0.121 -0.028,0.049 -0.03,-0.088 -0.083,-0.362 -0.107,-0.397 -0.036,-0.052 -0.048,0.1 -0.043,0.171 0.004,0.068 0.038,0.315 0.137,0.506 0.115,0.258 0.433,0.482 0.645,0.619 0.212,0.137 0.463,0.205 0.75,0.205 0.435,0 0.78,-0.151 1.038,-0.452 0.257,-0.3 0.326,-0.766 0.326,-1.297zm0.382 1.385l-0.227 0.306c-0.163,0.221 -0.408,0.357 -0.666,0.464 -0.258,0.107 -0.549,0.162 -0.871,0.162 -0.321,0 -0.609,-0.055 -0.865,-0.164 -0.255,-0.108 -0.477,-0.265 -0.664,-0.469 -0.187,-0.202 -0.33,-0.442 -0.426,-0.719 -0.096,-0.277 -0.145,-0.583 -0.145,-0.918 0,-0.319 0.043,-0.614 0.131,-0.882l-0.118 0.047c-2.547,0.825 -2.435,-0.782 -1.593,-1.244 0.534,-0.292 0.978,-0.116 1.588,-0.124 0.711,-0.487 1.597,-0.784 2.665,-0.753 -0.415,0.072 -1.081,0.282 -1.48,0.452 -0.525,0.224 -0.787,0.494 -1.185,0.742 -0.573,-0.078 -1.063,-0.13 -1.344,0.125 -0.107,0.097 -0.184,0.238 -0.224,0.438 0.643,0.014 0.662,0.12 1.585,-0.123 0.248,-0.107 0.302,-0.114 0.544,-0.327 0.184,-0.198 0.406,-0.351 0.666,-0.459 0.261,-0.107 0.549,-0.162 0.865,-0.162 0.32,0 0.611,0.055 0.871,0.163 0.26,0.109 0.484,0.266 0.67,0.468 0.317,0.342 0.47,0.737 0.575,1.187l0.476 1.925c0.035,0.142 0.029,0.32 -0.042,0.426 -0.126,0.188 -0.43,0.1 -0.575,-0.044 -0.1,-0.099 -0.171,-0.325 -0.211,-0.517z"/>
  <path class="fil1" d="M54.617 33.288c-0.715,0.057 -1.627,0.186 -2.307,0.357 -0.65,0.163 -1.313,0.601 -1.508,1.067 1.191,0.005 3.257,0.059 4.215,0.473 -1.782,0.007 -3.128,-0.091 -4.954,0.209 -1.042,0.171 -3.385,0.547 -4.208,0.969 0.703,1.048 0.349,1.416 -0.968,1.113 -0.11,0.705 0.011,1.59 0.464,1.979 0.009,-0.005 0.021,-0.019 0.025,-0.022 0.379,-0.256 0.228,-0.023 0.479,-0.187 -0.422,-1.484 1.182,-1.317 2.285,-1.254 0.537,0.03 1.116,0.071 1.65,0.144 0.268,0.037 0.547,0.081 0.811,0.127 0.45,0.078 0.459,0.06 0.502,0.396 -0.167,-0.232 -0.094,-0.221 -0.446,-0.251 -0.974,-0.085 -3.615,-0.204 -4.247,0.235 -0.01,0.337 0.13,0.543 0.238,0.788l5.721 -0.015c-0.647,0.058 -3.507,0.356 -3.841,0.552 -0.58,0.339 -0.793,0.55 -1.575,0.123 -0.446,-0.244 -1.272,-0.094 -1.75,-0.089 -0.357,-0.079 -0.461,-0.57 -0.483,-0.621 -0.138,-0.332 -0.197,-0.324 -0.274,-0.753 -0.131,-0.729 -0.217,-1.201 0.083,-1.882l0.985 0.247c-0.14,-0.234 -0.496,-0.427 -0.53,-0.589 -0.192,-0.906 3.682,-1.442 4.436,-1.594 0.668,-0.136 1.08,-1.113 1.986,-1.546 1.495,-0.715 4.919,-0.614 6.93,0.236 0.295,0.106 0.794,0.306 1.053,0.464 -1.904,-0.509 -2.157,-0.882 -4.772,-0.676zm1.687 5.034c0,-0.07 -0.052,-0.489 -0.09,-0.613 -0.031,-0.1 0.102,0.124 0.125,0.183 0.033,0.087 0.124,0.386 0.145,0.374 0.032,-0.019 -0.01,-0.277 -0.02,-0.331 -0.049,-0.265 -0.289,-0.7 -0.436,-0.873 -0.259,-0.298 -0.653,-0.395 -1.087,-0.395 -0.282,0 -0.528,0.066 -0.742,0.2 -0.214,0.133 -0.379,0.331 -0.494,0.592 -0.117,0.26 -0.174,0.565 -0.174,0.911 0,0.197 0.019,0.379 0.056,0.548 0.003,0.014 -0.003,0.121 -0.028,0.049 -0.031,-0.088 -0.084,-0.362 -0.108,-0.397 -0.036,-0.052 -0.048,0.1 -0.043,0.171 0.004,0.068 0.038,0.315 0.138,0.506 0.115,0.258 0.432,0.482 0.644,0.619 0.212,0.137 0.463,0.205 0.751,0.205 0.434,0 0.779,-0.151 1.038,-0.452 0.257,-0.3 0.325,-0.766 0.325,-1.297zm0.382 1.384l-0.227 0.307c-0.162,0.221 -0.408,0.356 -0.666,0.464 -0.257,0.107 -0.548,0.162 -0.871,0.162 -0.321,0 -0.609,-0.055 -0.864,-0.164 -0.255,-0.109 -0.477,-0.265 -0.665,-0.469 -0.186,-0.202 -0.329,-0.442 -0.426,-0.719 -0.096,-0.277 -0.145,-0.583 -0.145,-0.918 0,-0.319 0.044,-0.614 0.131,-0.882l-0.118 0.047c-2.547,0.825 -2.434,-0.782 -1.592,-1.244 0.533,-0.292 0.978,-0.116 1.588,-0.124 0.71,-0.488 1.596,-0.785 2.665,-0.753 -0.416,0.071 -1.082,0.282 -1.48,0.452 -0.525,0.224 -0.787,0.494 -1.185,0.742 -0.573,-0.078 -1.064,-0.13 -1.345,0.125 -0.107,0.097 -0.184,0.238 -0.224,0.438 0.644,0.014 0.662,0.12 1.585,-0.123 0.248,-0.107 0.302,-0.114 0.545,-0.327 0.183,-0.198 0.405,-0.352 0.666,-0.459 0.26,-0.108 0.548,-0.162 0.864,-0.162 0.32,0 0.611,0.054 0.871,0.163 0.261,0.109 0.484,0.266 0.67,0.468 0.317,0.342 0.47,0.736 0.575,1.187l0.476 1.925c0.035,0.142 0.03,0.319 -0.042,0.426 -0.126,0.188 -0.43,0.1 -0.575,-0.044 -0.1,-0.099 -0.17,-0.325 -0.211,-0.518z"/>
 </g>
</svg>
