<?xml version="1.0" encoding="UTF-8"?>
<!DOCTYPE svg PUBLIC "-//W3C//DTD SVG 1.1//EN" "http://www.w3.org/Graphics/SVG/1.1/DTD/svg11.dtd">
<!-- Creator: CorelDRAW -->
<svg xmlns="http://www.w3.org/2000/svg" xml:space="preserve" width="125px" height="70px" version="1.1" style="shape-rendering:geometricPrecision; text-rendering:geometricPrecision; image-rendering:optimizeQuality; fill-rule:evenodd; clip-rule:evenodd"
viewBox="0 0 125 70"
 xmlns:xlink="http://www.w3.org/1999/xlink"
 xmlns:xodm="http://www.corel.com/coreldraw/odm/2003">
 <defs>
  <style type="text/css">
   <![CDATA[
    .fil0 {fill:red}
   ]]>
  </style>
 </defs>
 <g id="Layer_x0020_1">
  <metadata id="CorelCorpID_0Corel-Layer"/>
  <path class="fil0" d="M108.991 6.903c1.771,0.55 3.459,1.159 5.036,1.825 2.349,0.84 6.325,2.433 8.389,3.693 -5.804,-1.553 -9.682,-2.945 -13.425,-3.982 -6.036,-1.671 -11.723,-2.413 -24.578,-1.398 -5.691,0.449 -12.951,1.476 -18.366,2.838 -5.172,1.301 -10.455,4.784 -12.008,8.496 9.481,0.039 25.934,0.47 33.565,3.768 -14.192,0.06 -24.908,-0.727 -39.448,1.662 -8.301,1.364 -26.954,4.356 -33.51,7.714 5.603,8.348 2.778,11.278 -7.701,8.87 -0.88,5.612 0.082,12.656 3.687,15.752 0.079,-0.04 0.168,-0.152 0.2,-0.173 3.019,-2.04 1.82,-0.185 3.816,-1.488 -3.355,-11.819 9.41,-10.484 18.197,-9.989 4.278,0.241 8.886,0.567 13.139,1.149 2.13,0.292 4.357,0.645 6.453,1.009 3.581,0.624 3.657,0.48 3.998,3.16 -1.329,-1.854 -0.748,-1.763 -3.549,-2.007 -7.759,-0.673 -28.785,-1.622 -33.817,1.878 -0.081,2.683 1.034,4.322 1.896,6.272l45.551 -0.123c-5.149,0.466 -27.921,2.841 -30.585,4.398 -4.614,2.696 -6.315,4.383 -12.538,0.978 -3.549,-1.943 -10.126,-0.748 -13.935,-0.707 -2.839,-0.626 -3.674,-4.54 -3.843,-4.946 -1.103,-2.642 -1.573,-2.575 -2.186,-5.994 -1.04,-5.801 -1.726,-9.564 0.662,-14.986l7.839 1.968c-1.114,-1.862 -3.941,-3.397 -4.214,-4.687 -1.529,-7.219 29.319,-11.485 35.316,-12.699 5.326,-1.078 8.601,-8.859 15.819,-12.31 10.733,-5.131 33.941,-4.98 50.14,0.059zm-11.141 40.217c0,-0.559 -0.413,-3.89 -0.717,-4.879 -0.244,-0.798 0.814,0.987 0.993,1.459 0.262,0.692 0.988,3.075 1.156,2.974 0.252,-0.151 -0.079,-2.203 -0.159,-2.636 -0.39,-2.111 -2.3,-5.576 -3.475,-6.947 -2.059,-2.377 -5.193,-3.145 -8.654,-3.145 -2.245,0 -4.204,0.525 -5.906,1.588 -1.702,1.064 -3.017,2.639 -3.932,4.714 -0.929,2.074 -1.388,4.503 -1.388,7.259 0,1.565 0.151,3.018 0.444,4.357 0.025,0.114 -0.023,0.969 -0.223,0.391 -0.242,-0.696 -0.663,-2.884 -0.857,-3.161 -0.287,-0.411 -0.379,0.799 -0.343,1.36 0.035,0.542 0.304,2.511 1.096,4.036 0.916,2.048 3.445,3.837 5.132,4.925 1.687,1.089 3.689,1.629 5.977,1.629 3.461,0 6.207,-1.196 8.266,-3.597 2.044,-2.39 2.59,-6.1 2.59,-10.327zm3.041 11.025l-1.804 2.444c-1.296,1.755 -3.253,2.835 -5.304,3.69 -2.052,0.855 -4.368,1.289 -6.936,1.289 -2.558,0 -4.852,-0.433 -6.883,-1.3 -2.032,-0.867 -3.8,-2.112 -5.294,-3.735 -1.484,-1.611 -2.621,-3.524 -3.389,-5.725 -0.768,-2.212 -1.157,-4.646 -1.157,-7.313 0,-2.543 0.348,-4.886 1.043,-7.023l-0.938 0.372c-20.281,6.571 -19.384,-6.226 -12.679,-9.9 4.248,-2.328 7.787,-0.926 12.642,-0.988 5.66,-3.884 12.714,-6.248 21.221,-5.995 -3.306,0.566 -8.613,2.245 -11.783,3.595 -4.181,1.782 -6.268,3.931 -9.438,5.91 -4.563,-0.623 -8.466,-1.033 -10.706,0.994 -0.852,0.77 -1.464,1.894 -1.78,3.492 5.121,0.111 5.268,0.95 12.619,-0.982 1.972,-0.854 2.406,-0.909 4.335,-2.602 1.463,-1.579 3.231,-2.802 5.304,-3.658 2.073,-0.855 4.368,-1.289 6.883,-1.289 2.547,0 4.862,0.434 6.936,1.3 2.073,0.867 3.851,2.113 5.336,3.725 2.523,2.72 3.742,5.863 4.578,9.448l3.79 15.333c0.278,1.127 0.233,2.541 -0.337,3.391 -1.003,1.498 -3.421,0.793 -4.577,-0.353 -0.798,-0.79 -1.358,-2.59 -1.682,-4.12z"/>
 </g>
</svg>
