<?xml version="1.0" encoding="UTF-8"?>
<!DOCTYPE svg PUBLIC "-//W3C//DTD SVG 1.1//EN" "http://www.w3.org/Graphics/SVG/1.1/DTD/svg11.dtd">
<!-- Creator: CorelDRAW -->
<svg xmlns="http://www.w3.org/2000/svg" xml:space="preserve" width="215px" height="125px" version="1.1" style="shape-rendering:geometricPrecision; text-rendering:geometricPrecision; image-rendering:optimizeQuality; fill-rule:evenodd; clip-rule:evenodd"
viewBox="0 0 215 125"
 xmlns:xlink="http://www.w3.org/1999/xlink"
 xmlns:xodm="http://www.corel.com/coreldraw/odm/2003">
 <defs>
  <style type="text/css">
   <![CDATA[
    .fil1 {fill:#6A6A6A}
    .fil2 {fill:red}
    .fil0 {fill:red}
   ]]>
  </style>
 </defs>
 <g id="Layer_x0020_1">
  <metadata id="CorelCorpID_0Corel-Layer"/>
  <path class="fil0" d="M142.042 9.573l-8.917 9.456c0.516,3.613 1.168,7.314 4.668,8.597 5.784,2.12 6.683,-1.297 9.274,-3.867 16.655,-16.516 43.407,-8.974 50.482,11.373 9.732,27.987 -16.853,46.18 -43.639,38.257 0.377,1.481 -1.096,3.404 3.676,5.865 2.634,1.591 2.047,4.75 3.317,9.519l15.517 -0.021c4.79,-16.883 7.679,-9.766 18.708,-7.683l8.979 -9.534c-1.766,-10.179 -9.474,-13.241 7.859,-18.557l-0.251 -14.937c-5.4,-2.895 -7.685,-0.675 -10.191,-6.91 -1.982,-4.935 1.516,-5.869 2.863,-12.256l-9.455 -8.968c-10.886,2.302 -14.082,8.147 -18.43,-7.875l-15.717 -0.008c-1.252,4.919 -1.099,8.226 -6.493,10.377 -4.607,1.838 -5.564,-1.514 -12.25,-2.828z"/>
  <path class="fil1" d="M150.802 28.562c0.696,-0.086 30.838,-16.96 39.128,10.129 2.722,8.892 -0.901,18.209 -5.362,22.549 -1.48,1.44 -6.093,4.456 -9.159,5.395 -3.634,1.112 -4.65,1.254 -8.115,1.28 -8.68,0.065 -8.809,-0.003 -11.106,-0.154 0.611,0.105 3.021,1.955 10.686,2.04 12.176,0.135 21.51,-4.284 25.412,-16.825 8.214,-26.397 -25.843,-43.528 -41.484,-24.414z"/>
  <path class="fil2" d="M159.579 37.742c2.595,0.808 5.07,1.7 7.382,2.677 3.444,1.231 9.272,3.567 12.298,5.414 -8.509,-2.276 -14.193,-4.318 -19.68,-5.837 -8.85,-2.45 -17.187,-3.539 -36.033,-2.05 -8.344,0.658 -18.986,2.163 -26.925,4.16 -7.584,1.907 -15.329,7.015 -17.605,12.456 13.9,0.057 38.02,0.689 49.208,5.525 -20.806,0.086 -36.517,-1.067 -57.834,2.436 -12.168,1.999 -39.515,6.385 -49.126,11.309 8.213,12.238 4.073,16.534 -11.292,13.003 -1.289,8.228 0.122,18.556 5.407,23.094 0.116,-0.059 0.246,-0.223 0.293,-0.254 4.426,-2.991 2.669,-0.271 5.595,-2.181 -4.92,-17.327 13.794,-15.371 26.677,-14.644 6.272,0.353 13.027,0.83 19.263,1.684 3.122,0.428 6.387,0.945 9.46,1.48 5.251,0.914 5.362,0.702 5.862,4.631 -1.949,-2.717 -1.098,-2.585 -5.204,-2.942 -11.374,-0.987 -42.201,-2.378 -49.577,2.753 -0.118,3.934 1.517,6.337 2.779,9.196l66.781 -0.18c-7.549,0.683 -40.934,4.164 -44.841,6.447 -6.764,3.953 -9.257,6.425 -18.379,1.434 -5.204,-2.848 -14.846,-1.097 -20.43,-1.036 -4.163,-0.918 -5.387,-6.657 -5.636,-7.252 -1.615,-3.873 -2.305,-3.775 -3.204,-8.788 -1.525,-8.504 -2.53,-14.02 0.971,-21.969l11.493 2.885c-1.634,-2.73 -5.779,-4.98 -6.179,-6.872 -2.242,-10.583 42.983,-16.838 51.776,-18.617 7.809,-1.58 12.608,-12.988 23.191,-18.047 15.735,-7.522 49.759,-7.302 73.509,0.085zm-16.334 58.961c0,-0.82 -0.606,-5.702 -1.05,-7.152 -0.36,-1.17 1.192,1.447 1.454,2.139 0.385,1.015 1.449,4.507 1.695,4.36 0.37,-0.222 -0.115,-3.23 -0.233,-3.865 -0.572,-3.095 -3.372,-8.174 -5.093,-10.185 -3.019,-3.484 -7.615,-4.61 -12.688,-4.61 -3.292,0 -6.164,0.77 -8.659,2.329 -2.496,1.558 -4.423,3.868 -5.765,6.909 -1.362,3.041 -2.034,6.603 -2.034,10.643 0,2.294 0.22,4.425 0.65,6.388 0.036,0.167 -0.033,1.42 -0.327,0.573 -0.354,-1.021 -0.972,-4.229 -1.256,-4.635 -0.42,-0.602 -0.556,1.172 -0.502,1.995 0.051,0.794 0.444,3.681 1.606,5.916 1.342,3.003 5.051,5.625 7.523,7.221 2.473,1.596 5.41,2.388 8.764,2.388 5.073,0 9.099,-1.753 12.118,-5.274 2.997,-3.504 3.797,-8.943 3.797,-15.14zm4.459 16.164l-2.645 3.582c-1.9,2.574 -4.769,4.157 -7.777,5.411 -3.008,1.254 -6.404,1.89 -10.168,1.89 -3.75,0 -7.113,-0.636 -10.091,-1.907 -2.978,-1.271 -5.571,-3.096 -7.761,-5.475 -2.176,-2.362 -3.842,-5.166 -4.968,-8.393 -1.126,-3.242 -1.698,-6.811 -1.698,-10.722 0,-3.727 0.511,-7.163 1.53,-10.295l-1.376 0.545c-29.733,9.634 -28.417,-9.129 -18.587,-14.514 6.227,-3.412 11.415,-1.358 18.534,-1.449 8.297,-5.695 18.64,-9.16 31.111,-8.789 -4.847,0.83 -12.627,3.291 -17.275,5.271 -6.129,2.613 -9.189,5.763 -13.836,8.664 -6.689,-0.914 -12.412,-1.514 -15.696,1.457 -1.25,1.13 -2.146,2.776 -2.61,5.119 7.507,0.164 7.724,1.394 18.5,-1.439 2.891,-1.253 3.528,-1.333 6.355,-3.815 2.145,-2.315 4.737,-4.107 7.777,-5.362 3.04,-1.254 6.404,-1.89 10.091,-1.89 3.733,0 7.129,0.636 10.168,1.906 3.039,1.271 5.647,3.098 7.823,5.461 3.699,3.988 5.487,8.596 6.713,13.851l5.555 22.48c0.408,1.652 0.342,3.724 -0.493,4.97 -1.472,2.197 -5.016,1.163 -6.711,-0.518 -1.17,-1.158 -1.991,-3.796 -2.465,-6.039z"/>
 </g>
</svg>
